<svg xmlns="http://www.w3.org/2000/svg" width="120" height="18" fill="#fff"><path d="M120 4.348V.611h-13.115v15.901h4.469v-5.357H120V7.574h-8.646V4.348H120zM94.792 0a8.56 8.56 0 0 0-4.757 1.443c-1.408.941-2.506 2.278-3.154 3.843a8.56 8.56 0 0 0-.487 4.948c.33 1.661 1.146 3.187 2.343 4.385a8.56 8.56 0 0 0 9.333 1.857c1.565-.648 2.902-1.746 3.843-3.154a8.56 8.56 0 0 0 1.443-4.757A8.57 8.57 0 0 0 94.792 0zm0 12.856a4.3 4.3 0 0 1-2.385-.723 4.29 4.29 0 0 1-1.825-4.406 4.3 4.3 0 0 1 1.175-2.198c.6-.6 1.365-1.009 2.198-1.175a4.29 4.29 0 0 1 2.48.244 4.3 4.3 0 0 1 1.927 1.581 4.29 4.29 0 0 1 .723 2.385 4.3 4.3 0 0 1-4.293 4.293zM9.335 6.674L5.195.611H0l7.102 9.714v6.187h4.467v-6.187L18.646.611h-5.197L9.335 6.674zm17.308 3.521h9.089V6.726h-9.089V4.348h9.089V.611H22.176v15.901h13.58v-3.737h-9.113v-2.58zm49.486 2.114l-.249.118a3.32 3.32 0 0 1-1.047.259 2.88 2.88 0 0 1-2.963-1.728c2.406-.75 3.781-2.568 3.781-5.012 0-3.242-2.466-5.339-6.282-5.339h-8.044v15.901h4.469v-5.169c1.165.038 1.764.553 2.39 1.424 1.231 1.712 3.312 3.751 6.227 3.751.766 0 1.734-.096 3.132-.802l.112-.058-1.394-3.408-.134.064zm-7.106-4.644h-3.228V4.283h3.228c1.46 0 2.167.545 2.167 1.668-.006 1.091-.796 1.714-2.167 1.714zM51.271.608h-5.458L39.289 16.52h4.722l.936-2.342h7.19l.936 2.352h4.722L51.307.705l-.036-.096zm-4.878 9.929l2.149-5.399 2.149 5.399h-4.299z"/></svg>