<svg xmlns="http://www.w3.org/2000/svg" width="541" height="168"><g fill="#fff" fill-rule="nonzero"><path d="M325.346 137.179c-.541.167-1.058.394-1.599.597l1.599-.597zM248.185 69.05c-.329-1.575-.388-3.008-.835-4.524-.494-1.659-1.281-3.163-2.175-4.571 1.105 3.211 2.186 6.433 3.103 9.668-.071-.334-.094-.573-.094-.573z"/><path d="M332.658 125.41c1.34-2.113 2.868-3.986 4.855-5.514 1.046-.8 2.163-1.492 3.28-2.148l3.621-1.969a.46.46 0 0 1 .458.8c-1.998 1.444-4.361 2.351-6.383 3.819-1.998 1.444-3.562 3.258-4.89 5.323-.846 1.313-1.646 2.674-2.339 4.082-.529 1.074-1.399 2.101-1.822 3.175-1.034 2.709.082 5.896.552 8.606.447 2.506 1.14 4.917 2.245 7.197 2.175 4.476 5.643 8.2 9.71 10.969 3.515 2.375 7.676 4.368 11.849 5.192 9.816 1.957 17.527.107 26.449-4.118 5.313-2.506 10.615-5.144 16.504-5.896 6.7-.871 13.483.609 20.172-.454 8.276-1.313 12.402-7.627 18.185-12.926 6.16-5.669 12.637-7.579 20.889-6.099 14.471 2.578 28.73 5.514 41.802-3.223 3.856-2.566 6.442-3.533 10.932-2.316 8.417 2.268 14.024-.692 21.594-4.177 1.046-.489 3.021-1.611 4.867-2.363-.541-.095-1.058-.191-1.293-.251-3.115-.8-5.537-2.733-7.488-5.24-2.692-3.437-4.443-7.555-6.877-11.184-3.679-5.538-7.03-7.293-13.377-7.507-6.853-.239-12.637-1.647-15.294-8.641-3.139-8.259-1.293-17.999-9.745-23.25-.682-.418-1.375-.812-2.092-1.158-3.715-1.85-7.911-3.056-12.073-3.151-1.987-.048-4.009.167-5.889.871-2.081.788-3.468 1.898-4.761 3.772-.447.656-.976 1.289-1.328 1.993-.329.656-.247 1.158-.364 1.814-.329 1.671-1.105 3.115-1.234 4.882-.341 4.762 1.375 9.978 4.961 13.177 1.587 1.408 3.609 2.316 5.748 2.256 2.715-.084 5.008-1.671 6.971-3.461.447-.406 1.081.215.658.668-2.128 2.28-5.067 4.058-8.264 3.915-5.102-.251-8.711-4.894-10.239-9.453-1.469-4.38-1.234-9.322 1.058-13.272-.012-.084-.059-.143-.035-.239 5.067-22.284-14.518-42.252-32.092-52.003-18.362-10.193-44.682-13.798-56.413 7.901-.141.263-.541.334-.741.095C351.76 10.375 333.481.671 313.05.898c-16.657.167-32.879 6.624-45.939 16.96a86.28 86.28 0 0 0-17.997 19.515c-2.269 3.378-5.595 7.734-6.63 11.757-.282 1.11-.247 2.125.082 3.223.212.704.835 1.755.635 2.506-.635 2.447-4.279-1.301-5.196-1.826-9.075-5.299-20.901-4.118-30.281-.454-10.697 4.166-24.263 14.442-24.757 27.118-.012.442-.658.692-.858.239-9.804-20.756-34.219-14-50.265-5.526-19.173 10.145-29.729 29.242-46.633 42.109-4.808 3.664-11.79 9.095-18.15 6.481-2.386-.967-4.244-3.008-6.289-4.512-4.573-3.354-10.109-4.524-15.341-1.85-4.197 2.148-7.335 5.884-10.991 8.761-2.939 2.327-6.207 4.07-9.651 5.538-4.514 1.922-9.251 3.33-14.036 4.333-2.069.442-4.667.454-6.653 1.122-2.621.895-2.163.095-.153 1.611 5.29 4.01 14.612 2.924 20.595 1.826 4.902-.907 9.569-2.876 14.482-3.676 6.324-1.038 11.696.716 16.939 4.237 7.676 5.18 14.576 10.515 24.357 10.062 10.356-.489 20.231-5.466 29.035-10.647 7.829-4.619 15.023-10.766 23.828-13.392s18.115-1.647 26.602 1.659c8.957 3.485 16.951 9.19 24.192 15.492 7.088 6.183 13.46 13.439 21.536 18.357 9.804 5.968 24.933 6.23 36.547.824.212-.095.435-.191.635-.298 6.889-3.366 12.437-8.749 14.718-16.197 2.774-9.071.259-19.956-9.475-23-7.782-2.447-16.293.549-22.476 5.443-.341.263-.952-.084-.658-.513 6.054-8.999 15.846-15.301 26.896-12.938 5.36 1.146 10.157 4.237 13.812 8.355 4.302 4.846 6.583 10.706 12.225 14.335 14.506 9.322 36.006 4.082 50.83-2.578.035-1.373.447-2.769.929-3.986.846-2.041 1.963-4.046 3.162-5.956z"/></g><path fill="#000" fill-rule="nonzero" d="M540.525 122.331c-12.766 1.325-15.058-9.405-21.347-17.856-4.549-6.099-8.57-5.825-15.493-6.397-12.237-1.015-12.425-10.599-14.624-20.41-1.387-6.171-4.373-9.907-10.039-12.616-5.137-2.459-11.685-3.986-17.292-2.423-2.092.585-4.079 1.623-5.501 3.33-.141.167-.247.358-.388.537.035-.346.082-.645.082-.704 1.223-12.664-5.595-24.635-13.836-33.563-15.552-16.817-48.314-34.004-69.274-16.781-2.034 1.671-3.82 3.628-5.349 5.777-1.352 1.91-1.281 3.354-3.456 2.053-2.045-1.217-4.103-4.321-5.889-5.944-5.995-5.419-12.837-9.811-20.313-12.795-15.341-6.135-32.503-5.848-47.973-.358-17.586 6.242-32.738 18.822-42.766 34.709-1.599 2.53-3.456 4.917-4.82 7.603-.799 1.575-1.481 6.791-4.279 5.884-1.058-.346-2.092-1.05-3.162-1.456-1.105-.418-2.233-.788-3.374-1.062-2.363-.597-4.796-.919-7.229-1.015-4.996-.203-10.039.549-14.765 2.16-10.286 3.509-21.395 11.434-25.85 21.83-.282.656-1.575 5.24-1.434 5.228.106-.012-2.081-3.628-2.316-3.939-2.433-3.235-5.631-5.729-9.357-7.209-15.917-6.35-36.77 3.676-49.442 13.26-9.345 7.054-16.61 16.34-24.615 24.814-4.467 4.726-9.181 9.25-14.576 12.89-6.348 4.285-11.779 6.791-18.244 1.743-7.324-5.717-14.506-7.257-22.288-1.253-5.102 3.927-9.275 8.331-15.211 11.1-8.041 3.736-16.881 5.681-25.662 6.505-.444.048-.611.597-.235.859 8.334 5.717 17.88 5.622 27.39 3.402 5.384-1.253 10.662-3.676 16.293-3.378 4.843.251 8.816 2.459 12.731 5.18 6.395 4.464 12.531 8.904 20.548 9.441 9.228.609 18.432-3.151 26.496-7.305 9.992-5.144 19.008-13.535 29.823-16.758 12.731-3.772 25.697.239 36.676 7.03 9.945 6.135 17.821 14.573 26.602 22.14 6.124 5.276 12.966 9.811 21.054 11.028 14.424 2.208 35.078-5.132 40.238-20.219 4.326-12.64-2.163-25.841-16.105-25.661-3.08.036-6.148.692-9.028 1.802-1.234.465-2.422 1.038-3.574 1.671-.776.418-1.469.919-2.222 1.373-.141.084-.212.119-.341.203 1.046-2.304 5.513-5.729 7.018-6.756 2.175-1.504 4.514-2.674 7.053-3.414 5.266-1.528 10.944-1.015 15.893 1.373 8.781 4.237 11.309 13.583 18.562 19.324 4.796 3.807 10.744 5.598 16.739 6.147 7.664.704 15.446-.489 22.852-2.423 2.974-.764 5.936-2.077 8.899-3.187l1.599-.597c1.305-.442 2.657-1.217 3.303.394.635 1.575.588 3.628.929 5.299.4 1.969.987 3.891 1.74 5.741 3.997 9.656 12.472 14.693 22.135 17.104.047.036.059.084.141.095 8.041 1.611 15.105 1.098 22.688-2.113 9.827-4.142 17.633-8.355 28.553-8.08 6.971.167 14.353.919 20.442-3.223 6.054-4.13 9.757-11.064 16.363-14.549 8.17-4.309 17.139-.394 25.615.74 8.217 1.098 17.457 1.289 25.262-2.017 3.127-1.313 5.49-3.867 8.534-5.287 5.349-2.506 9.063 1.098 14.177.943 8.922-.263 16.728-7.376 25.415-8.94.47-.167.364-1.098-.176-1.026zm-262.753 15.671c-5.643-3.628-7.923-9.489-12.225-14.335-3.656-4.118-8.428-7.209-13.812-8.355-11.062-2.363-20.842 3.939-26.896 12.938-.294.442.306.788.658.513 6.183-4.894 14.706-7.889 22.476-5.443 9.722 3.056 12.249 13.929 9.475 23-2.281 7.436-7.829 12.831-14.718 16.197-.212.107-.435.203-.635.298-1.669.764-3.386 1.349-5.137 1.922-10.662 3.258-22.993 2.363-31.41-2.757-8.076-4.917-14.447-12.174-21.536-18.357-7.241-6.302-15.247-12.007-24.192-15.492-8.476-3.306-17.797-4.285-26.602-1.659s-15.999 8.785-23.828 13.392c-8.816 5.18-18.679 10.157-29.035 10.647-9.792.465-16.681-4.882-24.357-10.062-5.243-3.533-10.615-5.276-16.939-4.237-4.914.8-9.592 2.769-14.482 3.676-5.983 1.11-15.317 2.196-20.595-1.826-1.987-1.516-2.445-.704.153-1.611 1.987-.692 4.596-.704 6.653-1.122 4.796-1.015 9.522-2.411 14.036-4.333 3.433-1.468 6.7-3.211 9.651-5.538 3.656-2.9 6.795-6.636 10.991-8.761 5.219-2.674 10.756-1.504 15.341 1.85 2.045 1.504 3.903 3.521 6.289 4.512 6.36 2.614 13.342-2.817 18.15-6.481 16.904-12.867 27.46-31.975 46.633-42.109 16.046-8.498 40.462-15.23 50.265 5.526.212.454.846.203.858-.239.494-12.676 14.071-22.952 24.757-27.118 9.404-3.664 21.206-4.846 30.281.454 2.139 1.253 3.914 3.056 5.255 5.192.799 1.301 1.505 2.626 1.975 4.082.541 1.671.705 3.569 1.352 5.18.6-2.781-.388-5.836-1.481-8.391-1.281-3.02-3.515-6.553-2.633-9.978 1.034-4.022 4.361-8.367 6.63-11.757a86.28 86.28 0 0 1 17.997-19.515C280.206 7.558 296.405 1.113 313.073.946c20.442-.203 38.722 9.501 51.935 25.005.2.239.6.155.741-.095 11.732-21.711 38.04-18.094 56.413-7.901 6.207 3.437 12.002 7.734 17.092 12.711 5.208 5.085 9.792 11.028 12.696 17.772 1.399 3.258 2.41 6.696 2.857 10.229.212 1.766.294 3.569.235 5.347-.082 1.743-.118 3.76-.799 5.347-.505 1.194-1.129 2.447-1.469 3.688-.247.895-.247 1.957-.353 2.876-.294 2.518.012 5.096.811 7.507 1.528 4.559 5.137 9.202 10.239 9.453 3.186.155 6.124-1.623 8.264-3.915.411-.442-.212-1.074-.658-.668-1.94 1.778-4.255 3.378-6.971 3.461-2.139.06-4.15-.847-5.748-2.256-3.585-3.187-5.302-8.415-4.961-13.177.247-3.378 1.869-6.791 3.962-9.322.705-.847 1.387-1.611 2.292-2.22.846-.561 1.575-1.146 2.563-1.325.893-.167 1.799-.346 2.715-.406 1.963-.155 3.914 0 5.842.358 3.609.656 7.218 1.957 10.356 3.891 8.428 5.264 6.595 14.991 9.745 23.25 2.657 6.982 8.428 8.391 15.294 8.641 6.348.215 9.698 1.969 13.377 7.507 2.422 3.628 4.161 7.746 6.877 11.184 1.975 2.506 4.396 4.44 7.488 5.24a24.37 24.37 0 0 0 1.293.251c-1.846.752-3.809 1.874-4.867 2.363-7.57 3.485-13.178 6.445-21.594 4.177-4.49-1.205-7.077-.251-10.932 2.316-13.084 8.737-27.331 5.801-41.802 3.223-8.229-1.468-14.706.442-20.889 6.099-5.784 5.299-9.91 11.613-18.185 12.926-6.689 1.062-13.471-.418-20.172.454-5.889.764-11.191 3.402-16.504 5.896-8.922 4.213-16.634 6.051-26.567 4.13-4.596-.895-9.251-3.27-12.99-6.087-3.879-2.924-7.088-6.791-9.005-11.315-.987-2.327-1.599-4.81-1.869-7.305-.306-2.9-.858-5.753.482-8.546.987-2.053 2.045-4.07 3.28-5.98 1.328-2.077 2.88-3.879 4.89-5.323 2.022-1.456 4.373-2.363 6.383-3.819.482-.346.082-1.015-.458-.8-1.246.537-2.433 1.301-3.621 1.969-1.14.656-2.245 1.349-3.28 2.148-1.987 1.516-3.515 3.402-4.855 5.514-1.199 1.91-2.328 3.915-3.139 6.027-.482 1.217-.893 2.614-.929 3.986-14.8 6.648-36.3 11.9-50.806 2.566z"/></svg>