<svg xmlns="http://www.w3.org/2000/svg" width="556" height="202" fill-rule="nonzero"><path d="M554.871 157.384c-11.743-.97-25.238 1.844-36.153-3.479-14.047-6.861-21.747-23.384-30.813-35.361-7.865-10.396-17.511-19.184-29.585-24.327-14.13-6.002-28.122-6.529-43.135-7.042-10.211-.347-17.235-3.562-25.003-10.188-3.629-3.091-7.41-5.891-12.033-7.305-12.06-3.673-24.7.152-34.828 6.931-4.554 3.05-9.176 6.224-13.178 10.008-.207.194-.773.693-1.407 1.261-.014-.028-.014-.042-.041-.069l.621-2.315c3.739-11.741 4.995-24.84 3.146-37.038-3.629-24.091-25.721-43.969-49.345-47.656-16.738-2.606-34.111 1.192-47.937 10.396-.11.069-.221.152-.345.236-6.361 4.283-12.033 9.62-16.407 16.19-3.67 5.517-5.506 10.826-7.424 17.036-.235.749-.29 1.289-.276 1.663-.124-.347-.359-.846-.814-1.552-1.628-2.481-2.774-5.184-4.595-7.568-7.286-9.62-19.139-13.709-30.785-14.957-24.769-2.648-52.849 17.965-60.301 41.543-1.863 5.877-2.111 12.046-1.338 18.145.124.943 1.877 8.095 1.325 8.566-.718.638-5.561-1.941-7.134-2.509-11.77-4.283-23.306-4.755-34.538 1.137-9.397 4.921-14.006 11.921-11.591 22.567 1.725 7.61 1.683 14.652-1.794 21.804-3.753 7.707-11.839 13.959-20.339 8.968-4.25-2.495-4.871-2.495-5.313-8.386.276.887.317 1.178 1.256 2.301 1.959 2.356 5.602 3.604 8.569 3.036 7.3-1.386 10.432-11.089 9.259-17.493-1.518-8.345-8.624-17.188-17.235-18.755-9.866-1.802-21.223 8.594-27.059 15.497-13.854 16.37-9.632 41.266 7.217 53.727 19.539 14.458 45.564 12.087 68.028 8.178 18.49-3.23 37.574-7.61 56.313-3.59 14.544 3.119 26.866 12.212 41.162 16.038 29.502 7.915 55.816-10.646 80.061-24.424 10.694-6.071 31.751-17.59 42.224-5.434 5.961 6.903 6.099 17.299 10.322 25.186 10.749 20.044 39.672 14.069 56.465 6.834 12.35-5.323 22.064-13.196 31.999-22.109 12.46-11.186 26.48-23.274 44.239-22.996 15.468.25 28.081 11.242 41.314 17.84 11.398 5.683 24.189 9.065 36.939 7.194 12.157-1.774 22.464-8.206 31.185-16.662.662-.61-.235-1.525-.897-1.067zm-4.291 3.743c-.11.097-.235.166-.345.263a66.09 66.09 0 0 1-3.905 2.994c-.152.111-.304.236-.455.347-.014.014-.028.014-.041.028a61.92 61.92 0 0 1-4.636 2.911c-.469.263-.952.485-1.435.735a53.75 53.75 0 0 1-3.463 1.691c-.221.097-.414.222-.635.305-.552.236-1.132.416-1.697.624l-2.125.79c-.773.25-1.573.457-2.36.679-.787.208-1.559.444-2.36.61-.842.18-1.683.305-2.525.444-.745.125-1.476.263-2.235.347-1.614.18-3.243.291-4.885.291-14.171.055-26.949-5.933-38.926-12.961-8.583-5.032-17.345-10.563-27.349-12.129-10.018-1.566-19.953 1.317-28.646 6.279-10.17 5.808-18.49 14.194-27.239 21.86-9.369 8.22-19.677 14.721-31.447 18.893-11.398 4.034-24.796 6.557-36.47 2.204a22.09 22.09 0 0 1-3.063-1.442c-.138-.069-.248-.166-.373-.25-6.623-3.978-10.073-11.145-12.336-18.644-.566-1.885-.883-3.854-.994-5.808-.041-.679-.028-1.358-.014-2.038.014-.402.014-.804.041-1.192.041-.582.124-1.151.207-1.733.083-.638.193-1.261.331-1.885.055-.208.124-.416.179-.638.787-2.953 2.166-5.725 4.181-8.081a18.77 18.77 0 0 1 2.304-2.246.6.6 0 0 1 .097-.083c1.476-1.192 3.05-2.135 4.705-2.883s3.381-1.289 5.175-1.705c1.187-.277 2.401-.485 3.629-.651 5.106-.707 9.852-.499 13.564 3.549 4.498 4.893 6.444 12.032 1.89 17.563-.552.665.4 1.622.952.956 3.877-4.713 3.836-10.646.814-15.816-2.815-4.81-7.079-7.97-12.736-7.97-10.584 0-21.554 4.685-25.542 15.165-1.338 3.521-1.463 7.194-.8 10.77-1.338-3.687-2.912-6.848-4.843-9.37a6.16 6.16 0 0 0-.262-.374c-.29-.36-.593-.707-.911-1.04a17.63 17.63 0 0 0-1.959-1.857 12.04 12.04 0 0 0-.98-.735 13.93 13.93 0 0 0-1.09-.624c-4.098-2.398-9.314-3.133-16.31-1.622-24.424 5.281-43.176 25.034-67.159 32.228-16.145 4.838-31.185 4.172-46.571-2.564-10.57-4.644-20.629-10.244-32.137-12.254-26.411-4.63-52.339 6.168-78.557 7.153-23.403.873-52.504-7.832-57.003-34.432-3.091-18.242 8.127-31.992 23.113-40.739 8.859-5.17 17.676-1.206 22.989 7.097 2.028 3.188 3.588 6.945 3.601 10.784 0 1.497-.248 3.23-.704 4.657-.386 1.982-1.532 3.812-2.939 5.337l-.248.291c-.235.236-.455.457-.704.665-.345.319-.69.624-1.063.887-.097.069-.179.152-.276.222-.069.055-.179.055-.248.111-1.532.998-3.643 1.455-5.409 1.012-2.208-.541-3.201-1.857-4.36-3.756-.856-1.4-.994-3.119-.952-4.755-1.642.554-1.877 3.812-1.946 5.226-.014.18.041.374.041.554 0 .582.028 1.164.138 1.747a7.83 7.83 0 0 0 .207.818 9.18 9.18 0 0 0 .538 1.455c.083.166.097.347.193.513.083.152.221.263.317.416a10.99 10.99 0 0 0 1.007 1.345c.235.263.469.541.745.79a11.65 11.65 0 0 0 1.407 1.053c.248.166.497.347.759.499.593.319 1.214.568 1.849.79.221.083.442.194.676.263a15.89 15.89 0 0 0 2.677.568c8.597 1.012 14.834-5.808 17.911-13.155 1.573-3.77 2.567-7.943 2.58-12.032.041-8.677-5.271-16.856 1.683-24.493 1.228-1.345 2.553-2.495 3.933-3.535.524-.388 1.076-.707 1.614-1.053.883-.568 1.78-1.123 2.705-1.594a28.38 28.38 0 0 1 2.015-.901c.897-.374 1.808-.707 2.746-.984a33.38 33.38 0 0 1 2.015-.568c1.132-.263 2.277-.457 3.436-.624.469-.069.938-.152 1.421-.208 4.83-.471 9.797-.083 14.599 1.026.4.097.787.222 1.187.319.455.111.897.25 1.352.374 1.173.319 2.346.665 3.491 1.067l1.946.693c.442.166.897.305 1.338.485 1.076.43 2.249.873 3.326 1.428.317.166.676.305.966.499 2.76 1.913 3.822 5.531 5.823 8.123 2.056 2.675 4.319 5.198 6.803 7.485 4.774 4.422 10.459 8.054 16.821 9.62 5.451 1.331 11.149.97 16.421-.929 14.999-5.406 30.73-24.299 18.753-39.824-5.464-7.097-15.51-11.131-23.43-5.614-.787.541-.083 1.816.759 1.303 9.852-5.988 22.064 1.636 24.714 12.087 2.663 10.493-5.092 20.515-13.164 26.184-8.873 6.224-19.774 8.054-29.75 3.368-8.224-3.854-14.075-10.452-18.932-17.881-1.297-1.996-1.946-3.992-2.429-6.127-.235-1.026-.442-2.079-.635-3.174 0-.028-.014-.042-.014-.055l-.041-.236c-.152-.846-.235-1.691-.345-2.537-.138-.956-.304-1.913-.4-2.883-.097-.915-.097-1.844-.138-2.772-.041-.943-.138-1.885-.124-2.842v-.139c.014-1.123.152-2.218.262-3.327.069-.721.069-1.442.166-2.162.179-1.234.483-2.44.773-3.646.138-.61.221-1.234.386-1.83.359-1.261.842-2.467 1.325-3.687.207-.527.345-1.067.566-1.58.745-1.719 1.614-3.382 2.608-5.004 6.278-10.271 15.593-18.422 26.052-24.175 13.302-7.305 26.852-8.303 41.203-3.507 11.701 3.909 18.27 12.032 23.113 23.066.304.693 1.269.277 1.297-.36.414-6.917 2.401-13.155 5.52-18.713.235-.402.455-.79.704-1.178.731-1.22 1.545-2.384 2.387-3.521l1.187-1.622c16.31-20.307 49.345-28.194 72.789-18.852 15.717 6.279 30.344 19.974 35.146 36.581 4.623 15.969 2.318 35.208-4.512 50.262-5.175 8.248-15.151 15.414-24.562 14.735-11.895-.859-18.891-13.224-17.152-24.313.138-.846-1.159-1.22-1.297-.36-1.932 11.63 4.94 24.452 17.248 26.115 6.361.859 12.75-1.954 17.787-5.628 1.766-1.289 3.395-2.745 4.912-4.311.069-.069.152-.125.221-.194.787-.832 1.504-1.705 2.222-2.592.511-.624.966-1.275 1.435-1.913l.455-.624c1.559-2.121 3.119-4.242 4.995-6.168.097-.097.152-.194.248-.291.041-.042.083-.069.124-.111 1.325-1.317 2.76-2.578 4.278-3.812.524-.43 1.076-.804 1.614-1.22 1.035-.776 2.056-1.539 3.132-2.273.221-.152.428-.319.649-.471.745-.485 1.518-.943 2.277-1.4.304-.18.593-.374.897-.554 4.112-2.426 8.472-4.505 13.054-5.753 14.627-4.006 24.134.929 34.939 9.828 7.824 6.446 16.559 7.555 26.425 7.596 14.116.069 28.274 1.816 41.189 7.957 23.444 11.159 31.199 35.264 49.055 52.078 11.66 10.978 25.597 9.149 40.03 9.551-11.232 4.38-24.038 7.236-35.946 4.117-9.825-2.564-16.973-10.119-24.962-15.927-.538-.388-1.035.499-.511.887 8.445 6.196 15.91 14.25 26.452 16.703 1.794.416 3.615.679 5.451.873.662.069 1.325.111 1.973.152a44.79 44.79 0 0 0 3.615.111l2.18-.028a51.7 51.7 0 0 0 4.167-.347c.455-.055.897-.069 1.352-.139a59.61 59.61 0 0 0 5.437-1.012c.138-.028.29-.042.442-.083.248-.055.497-.166.745-.222 2.015-.499 4.015-1.109 5.961-1.802.221-.083.442-.125.649-.194l.4-.166c.4-.152.787-.319 1.187-.485.635-.263 1.283-.499 1.904-.776.083-.042.193-.111.29-.166.331-.208.704-.457 1.049-.457.097 0 .207 0 .29.069.4.305.29.665.028.998-.248.388-.704.707-.911.873zm-71.313-24.05c-.041.028-.014.083-.041.125-.138.152-.207.333-.193.568.083.943 1.228 2.301 1.877 2.343 1.214.083-.304-4.02-1.642-3.036z" fill="#000"/><path d="M234.986 11.325c-.055.028-.097.083-.152.111l.345-.236c-.055.055-.124.083-.193.125zm316.503 147.958c-.083-.069-.193-.069-.29-.069l-1.049.457a1.26 1.26 0 0 1-.29.166l-1.904.776-1.187.485-.4.166c-.221.083-.442.125-.649.194l-5.961 1.802-.745.222-.442.083-5.437 1.012-1.352.139-4.167.347-2.18.028a62.58 62.58 0 0 1-3.615-.111l-1.973-.152a47.04 47.04 0 0 1-5.451-.873c-10.556-2.453-18.007-10.507-26.452-16.703-.524-.388-.014-1.275.511-.887 7.99 5.808 15.137 13.363 24.962 15.927 11.922 3.105 24.714.263 35.946-4.117-14.447-.402-28.384 1.414-40.03-9.551-17.856-16.814-25.611-40.919-49.055-52.078-12.916-6.141-27.073-7.901-41.189-7.957-9.852-.042-18.587-1.151-26.425-7.596-10.818-8.899-20.326-13.834-34.939-9.828-4.029 1.109-8.597 3.147-13.054 5.753-.304.18-.593.374-.897.554a64.87 64.87 0 0 0-2.912 1.871c-1.076.721-2.111 1.483-3.132 2.273-.538.402-1.09.79-1.614 1.22-1.49 1.206-2.925 2.467-4.278 3.812-.138.125-.235.263-.359.402-1.89 1.927-3.436 4.048-4.995 6.168-.124.194-.29.374-.4.568-.014.028-.041.028-.055.042-.483.638-.925 1.289-1.435 1.913-.718.887-1.435 1.76-2.222 2.592-.069.069-.152.125-.221.194-1.518 1.58-3.146 3.036-4.912 4.311-5.05 3.687-11.439 6.501-17.787 5.628-12.322-1.677-19.18-14.485-17.248-26.115.138-.859 1.435-.485 1.297.36-1.739 11.089 5.257 23.454 17.152 24.313 9.425.679 19.401-6.487 24.562-14.735 6.83-15.068 9.135-34.293 4.512-50.262-4.802-16.606-19.429-30.301-35.146-36.581-23.43-9.343-56.478-1.455-72.775 18.838-.414.527-.8 1.081-1.187 1.622-.842 1.151-1.656 2.315-2.387 3.521-.248.388-.469.79-.704 1.178-3.119 5.545-5.106 11.796-5.52 18.713-.041.624-.994 1.04-1.297.36-4.83-11.034-11.412-19.157-23.113-23.066-14.365-4.81-27.915-3.812-41.203 3.507-10.459 5.753-19.787 13.903-26.052 24.175a42.02 42.02 0 0 0-2.608 5.004c-.221.513-.373 1.053-.566 1.58-.469 1.22-.966 2.44-1.325 3.687-.166.596-.248 1.22-.386 1.83-.29 1.206-.593 2.412-.773 3.646-.097.707-.097 1.442-.166 2.162-.11 1.151-.235 2.301-.248 3.465-.014.943.083 1.885.124 2.842.041.929.041 1.844.138 2.772.097.97.262 1.927.4 2.883.138.929.235 1.857.4 2.772 0 .028.014.042.014.055.166.859.58 2.079.635 3.174.483 2.121 1.132 4.131 2.429 6.127 4.857 7.43 10.708 14.028 18.932 17.881 9.977 4.685 20.878 2.855 29.75-3.368 8.072-5.669 15.827-15.691 13.164-26.184-2.649-10.452-14.861-18.075-24.714-12.087-.842.513-1.545-.762-.759-1.303 7.934-5.503 17.966-1.469 23.43 5.614 11.964 15.525-3.753 34.418-18.753 39.824-5.271 1.899-10.97 2.273-16.421.929-6.361-1.552-12.046-5.198-16.821-9.62-2.484-2.287-4.733-4.81-6.803-7.485-2.001-2.592-3.05-6.196-5.823-8.123-.29-.194-.635-.333-.966-.499-.193-.083-.386-.18-.58-.263-1.338-.596-2.705-1.123-4.084-1.636l-1.946-.693a59.14 59.14 0 0 0-3.491-1.067l-1.352-.374c-5.188-1.275-10.584-1.83-15.8-1.345-.483.042-.938.139-1.421.208-1.159.152-2.304.36-3.436.624a33.38 33.38 0 0 0-2.015.568 28.2 28.2 0 0 0-2.746.984 28.79 28.79 0 0 0-2.015.901c-.925.471-1.821 1.026-2.705 1.594-.538.347-1.09.665-1.614 1.053-1.38 1.04-2.705 2.19-3.933 3.535-6.955 7.638-1.656 15.802-1.683 24.493-.014 4.103-1.007 8.275-2.58 12.032-3.077 7.347-9.314 14.153-17.911 13.155a16.45 16.45 0 0 1-2.677-.568c-.235-.069-.442-.18-.676-.263-.635-.222-1.256-.471-1.849-.79-.262-.152-.511-.333-.759-.499-.497-.319-.98-.665-1.407-1.053-.262-.236-.497-.513-.745-.79-.221-.25-.483-.444-.676-.721-.138-.18-.221-.416-.331-.624-.097-.152-.235-.263-.317-.416-.083-.166-.11-.347-.193-.513-.221-.471-.386-.943-.538-1.455-.069-.277-.152-.541-.207-.818-.124-.582-.152-1.151-.138-1.747 0-.18-.055-.374-.041-.554.069-1.414.304-4.657 1.946-5.226-.041 1.636.097 3.341.952 4.755 1.159 1.899 2.139 3.216 4.36 3.756 1.766.43 3.877-.028 5.409-1.012.179-.111.345-.208.511-.333.373-.277.718-.582 1.063-.887.235-.222.483-.43.704-.665l.248-.291c1.311-1.539 2.332-3.424 2.939-5.337.455-1.428.704-3.16.704-4.657-.014-3.826-1.573-7.596-3.601-10.784-5.313-8.317-14.116-12.267-22.989-7.097-15.054 8.733-26.273 22.483-23.168 40.781 4.498 26.6 33.6 35.305 57.003 34.432 26.218-.984 52.146-11.782 78.557-7.153 11.508 2.024 21.554 7.61 32.137 12.254 15.386 6.751 30.426 7.416 46.571 2.564 23.982-7.194 42.735-26.947 67.159-32.228 6.996-1.511 12.198-.776 16.31 1.622a13.93 13.93 0 0 1 1.09.624 25.81 25.81 0 0 1 .98.735 17.63 17.63 0 0 1 1.959 1.857c.304.333.621.679.911 1.04.083.125.166.25.262.374 1.932 2.523 3.519 5.683 4.843 9.37-.662-3.576-.538-7.25.8-10.77 3.988-10.479 14.958-15.151 25.542-15.165 5.658 0 9.921 3.16 12.736 7.97 3.022 5.17 3.05 11.103-.814 15.816-.552.665-1.49-.291-.952-.956 4.54-5.531 2.608-12.669-1.89-17.563-3.712-4.034-8.459-4.255-13.564-3.549a44.09 44.09 0 0 0-3.629.651c-3.574.818-6.927 2.19-9.88 4.588-.028.028-.055.055-.097.083-.856.707-1.614 1.455-2.304 2.246-2.015 2.343-3.395 5.115-4.181 8.081-.055.208-.124.416-.179.638-.152.624-.235 1.248-.331 1.885-.083.568-.166 1.151-.207 1.733-.028.402-.028.79-.041 1.192a32.98 32.98 0 0 0 .014 2.038c.11 1.968.428 3.923.994 5.808 2.263 7.485 5.713 14.666 12.336 18.644.124.069.248.166.373.25.952.541 1.973 1.026 3.063 1.442 11.674 4.339 25.072 1.83 36.47-2.204 11.784-4.172 22.078-10.673 31.447-18.893 8.748-7.665 17.069-16.066 27.239-21.86 8.693-4.962 18.628-7.846 28.646-6.279 10.004 1.566 18.753 7.097 27.349 12.129 11.991 7.014 24.755 13.016 38.926 12.961a47.17 47.17 0 0 0 4.885-.291c.745-.083 1.49-.236 2.235-.347.842-.139 1.697-.25 2.525-.444.787-.166 1.573-.402 2.36-.61.787-.222 1.587-.416 2.36-.679.718-.236 1.421-.513 2.125-.79a47.53 47.53 0 0 0 2.332-.929c1.173-.513 2.318-1.095 3.463-1.691.469-.25.966-.471 1.435-.735 1.587-.901 3.132-1.857 4.636-2.911.179-.125.331-.263.511-.374 1.338-.956 2.649-1.941 3.905-2.994.442-.36.856-.749 1.283-1.123.235-.374.359-.749-.055-1.04zm-70.581-19.171c-.649-.042-1.794-1.414-1.877-2.343 0-.014-.014-.042-.014-.055-.028-.18.014-.333.124-.471.014-.028.055-.014.083-.042s0-.097.041-.125c1.338-.984 2.856 3.119 1.642 3.036z" fill="#fff"/></svg>