<svg xmlns="http://www.w3.org/2000/svg" width="123" height="123" fill="none"><g clip-path="url(#A)" fill="#fff068"><path d="M38.603 8.692l1.183 2.166L35.2 13.33l2.659.585-.731 2.379-6.647-1.794 2.114-6.499 2.393.678-.931 2.485 4.546-2.472zm13.878-1.05l2.964 2.844-3.057.678-2.659-2.658-1.529.332.678 3.07-2.791.611-2.167-9.888 5.41-1.196c2.207-.478 4.081.372 4.56 2.565a3.32 3.32 0 0 1-1.449 3.615l.04.027zm-2.34-1.661a1.09 1.09 0 0 0 .983-1.329c-.159-.731-.691-.97-1.449-.811l-2.419.532.478 2.166 2.406-.558zm6.355 4.505L56.27.346l7.976-.173v2.472l-5.104.12V4.16l4.639-.093V6.34l-4.639.106v1.502l5.131-.106v2.472l-7.776.173zm10.939-.027L67.116 0l2.898.651.093 6.432 3.709-5.582 2.047.465.957 6.645 2.845-5.781 2.898.651-4.759 9.303-2.911-.651-.957-6.459-3.629 5.422-2.871-.638zm13.546 3.775l4.121-9.303L87.76 6.1l-4.121 9.303-2.659-1.169zm4.253 1.727l5.543-8.506 2.446 1.595.239 7.349 3.283-5.037 2.393 1.555-5.543 8.506-2.446-1.595-.239-7.349-3.283 5.037-2.393-1.555zm9.572 6.486l7.258-7.084 3.23 3.309c.526.444.949.998 1.239 1.622a4.73 4.73 0 0 1 0 3.986c-.29.624-.713 1.178-1.239 1.622-2.42 2.379-5.131 2.02-7.258-.16l-3.23-3.296zm3.762.319l1.05 1.063a2.66 2.66 0 0 0 3.307-.329 2.66 2.66 0 0 0 .78-1.579 2.65 2.65 0 0 0-.379-1.72l-1.036-1.063-3.723 3.628zm15.805 16.015l-2.167 1.169-2.472-4.585-.585 2.658-2.379-.744 1.807-6.645 6.501 2.113-.692 2.392-2.472-.93 2.459 4.572zm.997 13.821l-2.858 2.964-.665-3.057 2.659-2.658-.333-1.528-3.07.664-.612-2.777 9.917-2.166 1.17 5.409c.491 2.219-.373 4.08-2.566 4.559a3.31 3.31 0 0 1-3.602-1.461l-.04.053zm1.661-2.339c.16.731.638 1.156 1.33.997s.983-.691.81-1.449l-.518-2.432-2.167.479.545 2.405zm-4.506 6.353l10.143-.199.159 7.974h-2.472l-.106-5.103h-1.409l.093 4.652h-2.274l-.092-4.638h-1.516l.106 5.13h-2.472l-.16-7.815zm0 10.951L123 67.274l-.651 2.897-6.447.08 5.596 3.721-.478 2.02-6.647.944 5.783 2.844-.652 2.911-9.305-4.771.665-2.91 6.46-.957-5.437-3.628.638-2.857zm-3.802 13.543l9.306 4.147-1.17 2.658-9.305-4.147 1.169-2.658zm-1.741 4.186l8.494 5.555-1.595 2.445-7.351.226 5.038 3.296-1.569 2.392-8.494-5.555 1.595-2.445 7.351-.226-5.025-3.296 1.556-2.392zm-6.514 9.609l7.072 7.283-3.323 3.229a4.74 4.74 0 0 1-1.623 1.239 4.73 4.73 0 0 1-3.986 0 4.74 4.74 0 0 1-1.623-1.239c-2.366-2.432-2.007-5.13.186-7.256l3.297-3.256zm-.319 3.774l-1.077 1.037a2.66 2.66 0 0 0-.422 1.71c.058.601.319 1.165.739 1.598a2.66 2.66 0 0 0 3.299.413l1.077-1.037-3.616-3.721zm-16.005 15.736l-1.17-2.167 4.586-2.472-2.659-.585.744-2.379 6.647 1.821-2.14 6.499-2.393-.691.944-2.485-4.559 2.459zm-13.864.996l-2.951-2.87 3.057-.665 2.659 2.658 1.529-.332-.665-3.07 2.791-.598 2.154 9.914-5.424 1.17c-2.207.478-4.068-.372-4.546-2.578a3.31 3.31 0 0 1 .147-2.039c.263-.647.723-1.194 1.316-1.563l-.066-.027zm2.34 1.662c-.731.159-1.156.624-.997 1.329s.691.983 1.449.81l2.433-.518-.478-2.18-2.406.559zm-6.341-4.532l.186 10.14-7.976.159v-2.485l5.105-.093v-1.409l-4.639.093v-2.285l4.639-.08v-1.515l-5.144.106v-2.485l7.83-.146zm-10.967-.027l.279 10.473-2.898-.651-.066-6.446-3.722 5.568-2.06-.465-.917-6.645-2.871 5.768-2.898-.664 4.785-9.304 2.924.665.931 6.459 3.642-5.422 2.871.664zm-13.532-3.827l-4.161 9.303-2.659-1.17 4.161-9.303 2.659 1.17zm-4.214-1.728l-5.583 8.479-2.433-1.595-.253-7.283-3.31 5.024-2.393-1.569 5.583-8.479 2.433 1.595.226 7.35 3.31-5.024 2.419 1.502zm-9.597-6.539l-7.285 7.057-3.217-3.309a4.74 4.74 0 0 1-1.687-3.622 4.73 4.73 0 0 1 .442-1.997c.291-.626.716-1.18 1.245-1.624 2.433-2.366 5.131-1.994 7.258.199l3.244 3.296zm-3.762-.319l-1.037-1.076a2.66 2.66 0 0 0-3.736 3.616l1.037 1.063 3.735-3.602zM8.521 84.047l2.167-1.156 2.459 4.585.598-2.658 2.379.758-1.848 6.645-6.487-2.14.691-2.405 2.486.957-2.446-4.585zm-.97-13.849l2.871-2.95.651 3.057-2.659 2.658.332 1.528 3.071-.651.598 2.791-9.93 2.126-1.103-5.422c-.465-2.206.385-4.067 2.659-4.545a3.31 3.31 0 0 1 3.602 1.475l-.093-.066zm-1.662 2.339c-.16-.744-.638-1.156-1.329-1.01s-.984.691-.824 1.449l.518 2.432 2.18-.465-.545-2.405zm4.546-6.352l-10.156.159-.12-7.974h2.473l.08 5.103h1.409l-.08-4.638h2.286v4.638h1.515l-.08-5.13h2.473l.199 7.841zm.04-10.938L0 55.5l.665-2.897h6.434l-5.57-3.735.479-2.047 6.647-.917-5.756-2.871.665-2.897 9.305 4.811-.665 2.897-6.46.93 5.41 3.655-.678 2.818zm3.842-13.529l-9.305-4.173 1.183-2.658L15.5 39.06l-1.183 2.658zm1.754-4.266L7.604 31.87l1.608-2.432 7.351-.213-5.025-3.309 1.569-2.392 8.481 5.595-1.609 2.432-7.351.213 5.025 3.309-1.582 2.379zm6.58-9.503l-7.058-7.309 3.337-3.216c.45-.523 1.009-.942 1.638-1.227a4.72 4.72 0 0 1 2.003-.42 4.74 4.74 0 0 1 1.993.464 4.73 4.73 0 0 1 1.611 1.262c2.353 2.432 1.981 5.143-.213 7.256l-3.31 3.19zm.332-3.774l1.077-1.037a2.66 2.66 0 0 0-1.885-4.118 2.66 2.66 0 0 0-1.73.383l-1.064 1.037 3.602 3.735z"/></g><defs><clipPath id="A"><path fill="#fff" d="M0 0h123v123H0z"/></clipPath></defs></svg>