<svg xmlns="http://www.w3.org/2000/svg" width="166" height="166" fill="none"><g clip-path="url(#A)" fill="#fff068"><path d="M55.419 128.625l-2.463-1.263c.543-1.285.269-2.253-1.016-3.199-.944-.709-1.714-.848-2.045-.402s-.089.929 1.71 3.035c1.571 1.84 1.993 3.477 1.075 4.715-1.166 1.573-3.362 1.531-5.555-.102s-2.869-3.679-2.091-5.547l2.527 1.156a2.14 2.14 0 0 0 .937 2.524c.773.591 1.465.699 1.789.265s.006-.817-1.605-2.698-2.299-3.612-1.223-5.061 3.49-1.503 5.804.251c2.561 1.853 3.311 4.152 2.156 6.326zm-10.067-5.502a5.35 5.35 0 0 1-1.878 1.141 5.34 5.34 0 0 1-2.178.286 5.31 5.31 0 0 1-2.109-.616c-.653-.349-1.225-.831-1.681-1.414a4.81 4.81 0 0 1-.585-6.128l2.328 1.488c-.332.431-.5.966-.474 1.51a2.29 2.29 0 0 0 .616 1.456c.543.497 1.25.775 1.985.781s1.447-.258 1.999-.744a2.98 2.98 0 0 0 .991-1.89c.086-.731-.1-1.467-.523-2.068a2.36 2.36 0 0 0-1.472-.816c-.574-.082-1.158.05-1.642.371l-1.297-2.514a4.89 4.89 0 0 1 6.327 1.288 5.33 5.33 0 0 1 1.19 1.85c.264.693.38 1.433.342 2.174s-.231 1.465-.565 2.127-.802 1.247-1.375 1.718zm-10.126-16.871l1.889-3.699 1.542 2.805-1.831 3.332.774 1.396 2.817-1.535 1.418 2.554-9.096 5.041-2.741-4.971c-1.124-2.024-.783-4.074 1.174-5.221.618-.366 1.335-.527 2.05-.461a3.41 3.41 0 0 1 1.931.828l.073-.069zm-.953 2.779a1.11 1.11 0 0 0-.262-.409c-.116-.115-.256-.204-.41-.259s-.319-.077-.482-.061-.321.066-.462.149c-.679.382-.754.965-.374 1.675l1.233 2.218 1.979-1.103-1.221-2.21zm-2.19-5.14a5.62 5.62 0 0 1-3.277.039c-1.072-.313-2.027-.938-2.742-1.795a5.62 5.62 0 0 1-1.274-3.02c-.115-1.111.102-2.231.626-3.218s1.329-1.795 2.314-2.322a5.62 5.62 0 0 1 8.043 3.363c.248.697.349 1.439.295 2.177a5.33 5.33 0 0 1-.608 2.111 5.34 5.34 0 0 1-3.376 2.664zm-2.348-7.971c-.506.19-.946.525-1.264.963a2.77 2.77 0 0 0-.525 1.5c-.025.54.111 1.076.388 1.541a2.75 2.75 0 0 0 1.173 1.072c.488.234 1.033.321 1.569.249a2.76 2.76 0 0 0 2.293-2.003c.144-.521.132-1.074-.035-1.589-.101-.365-.278-.704-.521-.994a2.65 2.65 0 0 0-3.078-.739zm4.198-5.056l-10.355.875-.239-2.911 7.8-.665-.439-5.188 2.544-.218.69 8.106zm-.625-8.807l-10.34-.982.275-2.91 7.8.735.49-5.18 2.535.228-.76 8.109zm-6.016-20.111l6.299-3.027 2.722 6.456-2.256 1.082-.966-2.557-1.876 4.995-2.361-.896 1.88-4.976-2.376 1.283-1.067-2.36zm10.025-6.433l1.264-2.464c1.285.543 2.26.257 3.199-1.017.697-.951.848-1.714.39-2.052s-.922-.1-3.023 1.718c-1.841 1.572-3.465 2.001-4.715 1.077-1.572-1.165-1.531-3.362.103-5.556s3.679-2.871 5.547-2.092l-1.157 2.528c-.465-.154-.968-.144-1.426.026s-.846.492-1.098.912c-.579.78-.694 1.484-.253 1.796s.805-.001 2.698-1.606 3.6-2.307 5.06-1.224 1.498 3.471-.245 5.793c-1.865 2.555-4.164 3.305-6.345 2.162zm5.485-10.064c-.511-.537-.903-1.175-1.153-1.873a5.32 5.32 0 0 1 1.726-5.978 4.81 4.81 0 0 1 2.959-1.412c1.121-.109 2.245.179 3.175.814l-1.489 2.329a2.28 2.28 0 0 0-2.954.15c-.496.543-.774 1.25-.781 1.986a2.98 2.98 0 0 0 2.633 2.99c.73.086 1.467-.1 2.068-.524a2.35 2.35 0 0 0 .445-3.114l2.511-1.267c.594 1.028.792 2.237.556 3.4s-.889 2.2-1.837 2.916a5.32 5.32 0 0 1-4.023 1.531c-.74-.039-1.464-.233-2.125-.569a5.32 5.32 0 0 1-1.713-1.38zm16.856-10.188l3.698 1.889-2.793 1.549-3.35-1.826-1.397.775 1.542 2.805-2.554 1.419-5.045-9.084 4.888-2.792c2.024-1.124 4.073-.784 5.22 1.173a3.4 3.4 0 0 1-.349 3.976l.14.116zm-2.773-.934a1.11 1.11 0 0 0 .673-.676c.055-.155.073-.322.055-.486s-.072-.322-.159-.462c-.37-.672-.965-.754-1.663-.367l-2.218 1.233 1.114 1.986 2.199-1.229zm5.147-2.202a5.61 5.61 0 0 1 4.76-7.272c1.107-.117 2.223.099 3.207.619s1.791 1.321 2.318 2.301a5.61 5.61 0 0 1-3.326 8.03 5.32 5.32 0 0 1-2.177.299 5.33 5.33 0 0 1-4.781-3.976zm7.965-2.369c-.026-.414-.146-.817-.349-1.179s-.486-.673-.826-.911-.73-.395-1.14-.462-.829-.039-1.227.079a2.77 2.77 0 0 0-1.072.603c-.308.279-.548.624-.704 1.009a2.77 2.77 0 0 0-.197 1.214c.026.414.146.817.35 1.179.026.414.146.817.349 1.179a2.76 2.76 0 0 0 1.966 1.372c.41.066.829.039 1.227-.079a2.77 2.77 0 0 0 1.072-.603c.308-.279.548-.624.704-1.009a2.77 2.77 0 0 0 .197-1.214 2.76 2.76 0 0 0-.35-1.179zm5.036 4.202l-.892-10.352 2.906-.258.675 7.808 5.242-.424.217 2.544-8.148.682zm8.833-.643l.953-10.343 2.909.274-.739 7.831 5.186.477-.236 2.547-8.074-.787zm20.034-6.002l3.072 6.328-6.456 2.724-1.093-2.263 2.538-.962-4.975-1.88.878-2.357 4.994 1.875-1.295-2.383 2.337-1.082zm6.484 9.96l2.47 1.251c-.543 1.285-.257 2.261 1.017 3.199.951.697 1.714.848 2.052.39s.088-.929-1.717-3.023c-1.571-1.84-2.012-3.472-1.095-4.71 1.166-1.573 3.362-1.532 5.544.095s2.888 3.674 2.116 5.531l-2.534-1.145c.149-.467.137-.971-.035-1.43a2.18 2.18 0 0 0-.914-1.101c-.787-.567-1.479-.675-1.796-.253s.006.824 1.606 2.698 2.305 3.6 1.229 5.049-3.477 1.51-5.792-.244c-2.537-1.839-3.294-4.126-2.151-6.308zm10.076 5.461a5.32 5.32 0 0 1 1.869-1.155c.696-.251 1.437-.353 2.176-.301a5.32 5.32 0 0 1 2.112.604 5.31 5.31 0 0 1 1.687 1.406 4.8 4.8 0 0 1 1.419 2.953c.113 1.12-.171 2.245-.803 3.177l-2.336-1.477a2.28 2.28 0 0 0 .47-1.505c-.027-.541-.246-1.055-.619-1.45a2.98 2.98 0 0 0-1.997-.805c-.744-.01-1.464.257-2.02.75s-.909 1.176-.988 1.915a2.98 2.98 0 0 0 .558 2.081c.378.437.902.721 1.474.799s1.153-.054 1.634-.373l1.317 2.509a4.89 4.89 0 0 1-6.33-1.257 5.34 5.34 0 0 1-1.198-1.846c-.266-.692-.386-1.432-.35-2.173s.225-1.466.556-2.129a5.34 5.34 0 0 1 1.369-1.723zm10.21 16.839l-1.89 3.699-1.549-2.793 1.827-3.351-.775-1.397-2.805 1.543-1.46-2.483 9.067-5.074 2.803 4.895c1.124 2.024.783 4.074-1.162 5.228a3.4 3.4 0 0 1-3.969-.36l-.087.093zm.922-2.781a1.13 1.13 0 0 0 1.635.575c.672-.371.754-.966.355-1.671l-1.232-2.218-1.986 1.115 1.228 2.199zm2.22 5.142a5.62 5.62 0 0 1 6.695 7.971 5.63 5.63 0 0 1-2.306 2.33 5.62 5.62 0 0 1-6.24-.604c-.862-.709-1.494-1.659-1.815-2.729a5.35 5.35 0 0 1-.298-2.176c.052-.738.257-1.457.602-2.112a5.35 5.35 0 0 1 3.362-2.679zm2.386 7.961a2.76 2.76 0 0 0 2.084-1.184 2.77 2.77 0 0 0 .374-2.368 2.75 2.75 0 0 0-.607-1.069 2.76 2.76 0 0 0-1.01-.7c-.385-.154-.8-.22-1.214-.192a2.76 2.76 0 0 0-1.177.353 2.76 2.76 0 0 0-2.084 1.184 2.77 2.77 0 0 0-.457 1.141 2.75 2.75 0 0 0 .083 1.227c.119.397.326.763.606 1.069s.626.546 1.011.7.8.22 1.214.192a2.76 2.76 0 0 0 1.177-.353zm-4.19 5.044l10.358-.906.257 2.907-7.802.696.458 5.183-2.539.236-.732-8.115zm.652 8.841l10.344.92-.263 2.917-7.802-.704-.466 5.194-2.547-.235.734-8.092zm6.022 20.049l-6.273 3.01-2.746-6.47 2.263-1.094.966 2.557 1.863-5.002 2.368.884-1.875 4.995 2.39-1.307 1.044 2.426zm-9.961 6.487l-1.252 2.471c-1.284-.542-2.26-.256-3.199 1.017-.704.964-.836 1.722-.39 2.053s.929.088 3.023-1.718c1.836-1.591 3.46-2.02 4.717-1.108 1.572 1.166 1.542 3.369-.103 5.556s-3.667 2.878-5.531 2.118l1.146-2.534a2.15 2.15 0 0 0 1.42-.034 2.16 2.16 0 0 0 1.092-.911c.586-.792.682-1.492.26-1.808s-.825.006-2.687 1.613-3.606 2.318-5.055 1.243-1.529-3.473.244-5.793 4.158-3.293 6.315-2.165zm-5.412 10.076a5.32 5.32 0 0 1 1.155 1.869c.251.696.353 1.438.301 2.176a5.32 5.32 0 0 1-2.01 3.801c-.788.805-1.834 1.309-2.955 1.424s-2.247-.166-3.182-.796l1.489-2.329a2.28 2.28 0 0 0 2.949-.168c.5-.545.78-1.256.786-1.995s-.263-1.455-.754-2.007-1.171-.903-1.906-.983-1.473.116-2.072.549a2.36 2.36 0 0 0-.415 3.117l-2.509 1.316a4.89 4.89 0 0 1-.572-3.403 4.9 4.9 0 0 1 1.818-2.934 5.35 5.35 0 0 1 1.846-1.199c.692-.267 1.432-.388 2.173-.354a5.36 5.36 0 0 1 2.131.552 5.33 5.33 0 0 1 1.727 1.364zm-16.823 10.24l-3.705-1.877 2.781-1.556 3.35 1.825 1.385-.781-1.549-2.793 2.561-1.431 5.071 9.068-4.954 2.768c-2.012 1.131-4.061.791-5.215-1.154a3.38 3.38 0 0 1-.474-2.045c.063-.715.351-1.391.823-1.931l-.074-.093zm2.773.934c-.153.057-.293.148-.408.265a1.13 1.13 0 0 0-.314.897 1.12 1.12 0 0 0 .154.462c.382.679.965.754 1.67.355l2.218-1.234-1.114-1.986-2.206 1.241zm-5.13 2.229c.344 1.062.363 2.203.055 3.277a5.62 5.62 0 0 1-4.794 4.041c-1.11.122-2.231-.09-3.22-.608a5.62 5.62 0 0 1-2.333-2.301c-.532-.982-.76-2.1-.654-3.212a5.62 5.62 0 0 1 1.248-3.03 5.63 5.63 0 0 1 2.726-1.821 5.35 5.35 0 0 1 2.175-.302 5.34 5.34 0 0 1 3.808 1.995 5.33 5.33 0 0 1 .989 1.961zm-7.967 2.399a2.76 2.76 0 0 0 .969 1.256c.439.315.96.493 1.5.515a2.77 2.77 0 0 0 2.603-1.57 2.76 2.76 0 0 0 .244-1.568 2.77 2.77 0 0 0-.658-1.443c-.356-.407-.823-.7-1.344-.843s-1.072-.132-1.586.035a2.66 2.66 0 0 0-.995.526c-.291.245-.525.549-.689.891a2.67 2.67 0 0 0-.045 2.201zm-5.062-4.185l.93 10.342-2.913.271-.706-7.81-5.13.506-.229-2.551 8.048-.758zm-8.805.676l-.922 10.345-2.916-.262.699-7.791-5.193-.465.235-2.548 8.098.721zm-20.026 6.071l-3.058-6.271 6.47-2.747 1.093 2.263-2.545.973 4.989 1.856-.878 2.357-4.997-1.844 1.295 2.383-2.37 1.03z"/></g><defs><clipPath id="A"><path fill="#fff" transform="matrix(-.858325 -.513107 .513107 -.858325 103.712 165.286)" d="M0 0h120v120H0z"/></clipPath></defs></svg>