<svg width="13" height="274" viewBox="0 0 13 274" fill="none" xmlns="http://www.w3.org/2000/svg">
<path d="M1 8.71492L5.3578 8.71492L12.298 13.5085L12.298 9.82858L8.1016 7.14934L8.1016 7.11706L12.298 4.42168L12.298 0.74176L5.3578 5.53534L1 5.53534L1 8.71492ZM0.999999 24.8515L3.75994 24.8515L3.75994 19.138L5.4385 19.138L5.4385 24.3028L7.97248 24.3028L7.97248 19.138L9.53806 19.138L9.53806 24.8192L12.298 24.8192L12.298 15.9584L0.999999 15.9584L0.999999 24.8515ZM0.999998 39.936L12.298 34.9164L12.298 31.979L0.999999 26.9756L0.999999 30.1874L2.614 30.833L2.614 36.0785L0.999998 36.7241L0.999998 39.936ZM9.07 33.4316L9.07 33.4638L5.2771 34.9971L5.2771 31.9144L9.07 33.4316ZM4.84132 50.544C5.40622 51.9966 6.66514 52.9811 8.4244 52.9811C10.9261 52.9811 12.298 51.1573 12.298 48.6395L12.298 42.474L0.999998 42.474L0.999998 45.6536L4.50238 45.6536L4.50238 47.3967L0.999998 49.6079L0.999998 53.0941L4.80904 50.544L4.84132 50.544ZM7.16548 45.6536L9.6349 45.6536L9.6349 48.4135C9.6349 49.2851 9.24754 49.8016 8.40826 49.8016C7.58512 49.8016 7.16548 49.2367 7.16548 48.3974L7.16548 45.6536ZM0.661057 67.1319C0.661057 70.6827 3.0982 73.2328 6.649 73.2328C10.1998 73.2328 12.6369 70.6827 12.6369 67.1319C12.6369 63.5649 10.1998 61.0148 6.649 61.0148C3.0982 61.0148 0.661057 63.5649 0.661057 67.1319ZM3.421 67.1319C3.421 65.3565 4.69606 64.1944 6.649 64.1944C8.60194 64.1944 9.877 65.3565 9.877 67.1319C9.877 68.9234 8.60194 70.0532 6.649 70.0532C4.69606 70.0532 3.421 68.9234 3.421 67.1319ZM0.999997 79.4139L4.66378 79.4139L4.66378 85.0468L7.24618 85.0468L7.24618 79.4139L9.53806 79.4139L9.53806 85.2082L12.298 85.2082L12.298 76.2343L0.999997 76.2343L0.999997 79.4139ZM4.42168 96.7561C4.42168 98.1764 5.4385 99.0803 6.77812 99.0803C8.13388 99.0803 9.1507 98.1603 9.1507 96.7561C9.1507 95.3519 8.13388 94.4158 6.77812 94.4158C5.42236 94.4158 4.42168 95.3519 4.42168 96.7561ZM0.999995 111.939L5.29324 111.939L5.29323 116.394L0.999995 116.394L0.999995 119.573L12.298 119.573L12.298 116.394L8.21458 116.394L8.21458 111.939L12.298 111.939L12.298 108.76L0.999995 108.76L0.999995 111.939ZM0.999994 135.07L12.298 130.05L12.298 127.113L0.999995 122.11L0.999995 125.321L2.61399 125.967L2.61399 131.212L0.999994 131.858L0.999994 135.07ZM9.06999 128.566L9.06999 128.598L5.27709 130.131L5.27709 127.048L9.06999 128.566ZM4.84131 145.678C5.40621 147.131 6.66513 148.115 8.42439 148.115C10.9261 148.115 12.298 146.291 12.298 143.773L12.298 137.608L0.999994 137.608L0.999994 140.788L4.50237 140.788L4.50237 142.531L0.999994 144.742L0.999994 148.228L4.80903 145.678L4.84131 145.678ZM7.16547 140.788L9.63489 140.788L9.63489 143.547C9.63489 144.419 9.24753 144.936 8.40825 144.936C7.58511 144.936 7.16547 144.371 7.16547 143.531L7.16547 140.788ZM0.999993 156.353C0.999993 159.742 2.87223 162.131 6.64899 162.131C10.3128 162.131 12.298 159.774 12.298 156.385L12.298 151.236L0.999993 151.236L0.999993 156.353ZM9.53805 154.416L9.53805 156.078C9.53805 157.934 8.65035 158.951 6.64899 158.951C4.59921 158.951 3.75993 157.918 3.75993 156.078L3.75993 154.416L9.53805 154.416ZM0.661052 176.138C0.661052 179.302 2.06523 181.368 4.22799 181.368C6.19707 181.368 7.23003 179.786 7.85949 177.026C8.47281 174.444 8.71491 173.911 9.18297 173.911C9.76401 173.911 10.1191 174.589 10.1191 175.654C10.1191 176.897 9.58647 177.72 8.52123 178.107L9.15069 181.077C11.2812 180.545 12.6369 178.446 12.6369 175.654C12.6369 172.684 11.2489 170.731 9.11841 170.731C7.43985 170.731 6.29391 172.168 5.69673 174.734C5.03499 177.672 4.71219 178.188 4.16343 178.188C3.55011 178.188 3.17889 177.429 3.17889 176.138C3.17889 174.411 3.80835 173.54 5.32551 173.185L4.82517 170.199C2.17821 170.602 0.661052 172.749 0.661052 176.138ZM0.999992 193.102L3.75993 193.102L3.75993 187.388L5.43849 187.388L5.43849 192.553L7.97247 192.553L7.97247 187.388L9.53805 187.388L9.53805 193.069L12.298 193.069L12.298 184.208L0.999992 184.208L0.999992 193.102ZM0.999991 205.184L3.77607 205.184L3.77607 199.519L12.298 199.519L12.298 196.339L0.999991 196.339L0.999991 205.184ZM0.999991 212.701L9.53805 212.701L9.53805 216.623L12.298 216.623L12.298 205.632L9.53805 205.632L9.53805 209.521L0.999991 209.521L0.999991 212.701ZM0.99999 229.6L3.75993 229.6L3.75993 223.548L3.79221 223.548L9.87699 229.632L12.298 229.632L12.298 219.287L9.53805 219.287L9.53805 225.145L9.50577 225.145L3.42099 219.077L0.99999 219.077L0.99999 229.6ZM0.999989 241.704L3.75993 241.704L3.75993 235.99L5.43849 235.99L5.43849 241.155L7.97247 241.155L7.97247 235.99L9.53805 235.99L9.53805 241.671L12.298 241.671L12.298 232.811L0.99999 232.811L0.999989 241.704ZM4.84131 253.011C5.40621 254.464 6.66513 255.449 8.42439 255.449C10.9261 255.449 12.298 253.625 12.298 251.107L12.298 244.941L0.999989 244.941L0.999989 248.121L4.50237 248.121L4.50237 249.864L0.999989 252.075L0.999989 255.562L4.80903 253.011L4.84131 253.011ZM7.16547 248.121L9.63489 248.121L9.63489 250.881C9.63489 251.753 9.24753 252.269 8.40825 252.269C7.58511 252.269 7.16547 251.704 7.16547 250.865L7.16547 248.121ZM4.42167 266.945C4.42167 268.365 5.43849 269.269 6.77811 269.269C8.13387 269.269 9.15069 268.349 9.15069 266.945C9.15069 265.541 8.13387 264.605 6.77811 264.605C5.42235 264.605 4.42167 " fill="#FFF068"/>
</svg>
