<svg width="274" height="13" viewBox="0 0 274 13" fill="none" xmlns="http://www.w3.org/2000/svg">
<path d="M8.71492 12L8.71492 7.6422L13.5085 0.702L9.82858 0.702L7.14934 4.8984H7.11706L4.42168 0.702L0.74176 0.702L5.53534 7.6422L5.53534 12L8.71492 12ZM25.0613 12L25.0613 9.24006L19.3478 9.24006L19.3478 7.5615L24.5126 7.5615L24.5126 5.02752L19.3478 5.02752L19.3478 3.46194L25.0291 3.46194L25.0291 0.702L16.1682 0.702L16.1682 12L25.0613 12ZM40.3556 12L35.3361 0.702L32.3986 0.702L27.3952 12L30.6071 12L31.2527 10.386L36.4982 10.386L37.1438 12L40.3556 12ZM33.8512 3.93H33.8835L35.4168 7.7229L32.334 7.7229L33.8512 3.93ZM51.1735 8.15868C52.6261 7.59378 53.6106 6.33486 53.6106 4.5756C53.6106 2.0739 51.7868 0.702 49.2689 0.702L43.1035 0.702L43.1035 12L46.283 12L46.283 8.49762L48.0262 8.49762L50.2373 12L53.7236 12L51.1735 8.19096V8.15868ZM46.283 5.83452V3.3651L49.043 3.3651C49.9145 3.3651 50.431 3.75246 50.431 4.59174C50.431 5.41488 49.8661 5.83452 49.0268 5.83452L46.283 5.83452ZM68.181 12.3389C71.7318 12.3389 74.2819 9.9018 74.2819 6.351C74.2819 2.8002 71.7318 0.36306 68.181 0.36306C64.614 0.36306 62.0639 2.8002 62.0639 6.351C62.0639 9.9018 64.614 12.3389 68.181 12.3389ZM68.181 9.579C66.4056 9.579 65.2435 8.30394 65.2435 6.351C65.2435 4.39806 66.4056 3.123 68.181 3.123C69.9725 3.123 71.1023 4.39806 71.1023 6.351C71.1023 8.30394 69.9725 9.579 68.181 9.579ZM80.6728 12V8.33622L86.3057 8.33622V5.75382L80.6728 5.75382L80.6728 3.46194L86.4671 3.46194V0.702L77.4933 0.702L77.4933 12L80.6728 12ZM98.4347 8.57832C99.855 8.57832 100.759 7.5615 100.759 6.22188C100.759 4.86612 99.8388 3.8493 98.4347 3.8493C97.0305 3.8493 96.0944 4.86612 96.0944 6.22188C96.0944 7.57764 97.0305 8.57832 98.4347 8.57832ZM114.037 12V7.70676L118.492 7.70676V12L121.672 12L121.672 0.702L118.492 0.702V4.78542L114.037 4.78542V0.702L110.858 0.702L110.858 12L114.037 12ZM137.378 12L132.358 0.702L129.421 0.702L124.418 12L127.629 12L128.275 10.386L133.52 10.386L134.166 12L137.378 12ZM130.874 3.93H130.906L132.439 7.7229L129.356 7.7229L130.874 3.93ZM148.196 8.15868C149.648 7.59378 150.633 6.33486 150.633 4.5756C150.633 2.0739 148.809 0.702 146.291 0.702L140.126 0.702L140.126 12L143.305 12V8.49762L145.048 8.49762L147.26 12L150.746 12L148.196 8.19096V8.15868ZM143.305 5.83452V3.3651L146.065 3.3651C146.937 3.3651 147.453 3.75246 147.453 4.59174C147.453 5.41488 146.888 5.83452 146.049 5.83452L143.305 5.83452ZM159.08 12C162.47 12 164.858 10.1278 164.858 6.351C164.858 2.68722 162.502 0.702 159.112 0.702L153.964 0.702L153.964 12L159.08 12ZM157.143 3.46194L158.806 3.46194C160.662 3.46194 161.679 4.34964 161.679 6.351C161.679 8.40078 160.646 9.24006 158.806 9.24006L157.143 9.24006V3.46194ZM179.286 12.3389C182.449 12.3389 184.515 10.9348 184.515 8.772C184.515 6.80292 182.933 5.76996 180.173 5.1405C177.591 4.52718 177.058 4.28508 177.058 3.81702C177.058 3.23598 177.736 2.8809 178.801 2.8809C180.044 2.8809 180.867 3.41352 181.255 4.47876L184.224 3.8493C183.692 1.71882 181.594 0.36306 178.801 0.36306C175.832 0.36306 173.879 1.7511 173.879 3.88158C173.879 5.56014 175.315 6.70608 177.881 7.30326C180.819 7.965 181.335 8.2878 181.335 8.83656C181.335 9.44988 180.577 9.8211 179.286 9.8211C177.559 9.8211 176.687 9.19164 176.332 7.67448L173.346 8.17482C173.75 10.8218 175.896 12.3389 179.286 12.3389ZM196.459 12V9.24006L190.745 9.24006V7.5615L195.91 7.5615V5.02752L190.745 5.02752V3.46194L196.426 3.46194L196.426 0.702L187.566 0.702L187.566 12L196.459 12ZM208.751 12V9.22392L203.086 9.22392L203.086 0.702L199.906 0.702L199.906 12L208.751 12ZM216.478 12V3.46194L220.4 3.46194L220.4 0.702L209.409 0.702L209.409 3.46194L213.298 3.46194V12L216.478 12ZM233.587 12V9.24006L227.534 9.24006V9.20778L233.619 3.123L233.619 0.702L223.273 0.702L223.273 3.46194L229.132 3.46194V3.49422L223.063 9.579V12L233.587 12ZM245.9 12V9.24006L240.187 9.24006V7.5615L245.351 7.5615V5.02752L240.187 5.02752V3.46194L245.868 3.46194L245.868 0.702L237.007 0.702L237.007 12L245.9 12ZM257.418 8.15868C258.87 7.59378 259.855 6.33486 259.855 4.5756C259.855 2.0739 258.031 0.702 255.513 0.702L249.348 0.702L249.348 12L252.527 12V8.49762L254.27 8.49762L256.482 12L259.968 12L257.418 8.19096V8.15868ZM252.527 5.83452V3.3651L255.287 3.3651C256.159 3.3651 256.675 3.75246 256.675 4.59174C256.675 5.41488 256.11 5.83452 255.271 5.83452L252.527 5.83452ZM271.771 8.57832C273.191 8.57832 274.095 7.5615 274.095 6.22188C274.095 4.86612 273.175 3.8493 271.771 3.8493C270.366 3.8493 269.43 4.86612 269.43 6.22188C269.43 7.57764" fill="#FFF068"/>
</svg>
