<svg xmlns="http://www.w3.org/2000/svg" width="559" height="699"><g transform="matrix(.75471 .656059 .656059 -.75471 -278.901956 521.981165)"><path fill="#e4efcb" d="M85.4 515.829c-11.658 3.845-18.026 16.528-17.772 28.283.035 1.62.219 3.363.788 4.887 1.209 3.25 1.463 1.638 3.556 2.601 3.232 1.48 3.74 3.031 8.023.622 5.36-3.022 9.898-9.766 11.982-15.407 1.699-4.598 4.896-18.28-2.768-18.359"/><path fill="#000" d="M85.321 515.54c-7.235 2.444-12.578 8.155-15.486 15.118-1.419 3.398-2.26 7.033-2.496 10.712-.123 1.971-.131 3.994.254 5.939.228 1.156.657 3.293 1.752 3.994.823.526 1.98.368 2.899.815 1.209.578 2.356 1.507 3.723 1.673 3.197.394 6.657-2.724 8.715-4.8 4.826-4.861 7.892-11.194 9.162-17.886.815-4.309 1.726-12.718-4.633-12.963-.412-.018-.412.622 0 .631 5.676.21 4.791 7.971 4.099 11.79-1.034 5.702-3.407 11.054-7.042 15.6-2.181 2.724-5.185 5.798-8.654 6.762-2.645.736-4.379-1.638-6.858-2.015-1.55-.236-1.866-1.375-2.277-2.873-.526-1.909-.561-3.942-.482-5.912.131-3.328.797-6.639 1.927-9.775 2.654-7.34 8.076-13.62 15.556-16.23.359-.131.21-.701-.158-.578h0z"/><path fill="#e4efcb" d="M78.708 419.867c-8.067-4.099-14.68-11.176-16.686-20.198-1.06-4.765-.219-8.89.245-13.655.499-5.15.666-6.105 6.473-3.81-1.401-4.879 5.702-3.346 8.435-2.304 4.887 1.874 8.803 6.341 11.273 10.905 2.321 4.283 4.581 10.195 5.071 15.065.342 3.363 1.647 13.156-1.603 14.908"/><path fill="#000" d="M78.857 419.622c-7.655-4.003-14.093-10.616-16.283-19.147-1.288-5.028-.42-10.152.131-15.223.114-1.051.079-3.197 1.235-3.74 1.27-.604 3.539.587 4.704 1.042.272.105.499-.201.447-.447-1.217-4.984 7.147-2.356 9.337-1.261 5.255 2.645 8.75 7.787 11.124 12.998 2.181 4.782 3.407 9.644 3.88 14.864.193 2.05.324 4.117.228 6.184-.088 1.813-.228 4.476-1.918 5.588-.359.236-.035.806.342.587 2.689-1.594 2.409-6.21 2.321-8.855-.14-4.336-.639-8.733-1.944-12.876-2.82-8.934-8.514-19.068-18.63-20.689-2.829-.455-6.315-.026-5.422 3.652l.447-.447c-1.988-.771-5.36-2.4-6.377.455-.657 1.857-.596 4.125-.815 6.044-.35 3.118-.709 6.236-.315 9.372 1.244 9.933 8.601 17.965 17.229 22.397.315.158.604-.333.28-.499h0z"/><path fill="#e4efcb" d="M65.438 472.876c-4.572 4.616-6.797 8.759-13.603 10.572-5.282 1.41-12.07 1.717-17.404.596-7.795-1.638-14.706-7.068-22.055-10.117-2.111-.876-11.842-3.495-12.184-5.816-.464-3.127 9.95-6.893 12.289-7.647 8.198-2.654 17.579-1.06 25.997-.061 9.906 1.165 16.975 5.904 25.506 10.581-6.902-7.664-18.359-12.981-27.827-16.642-6.832-2.645-13.769-5.133-19.156-10.248-3.854-3.652-6.683-8.374-10.178-12.122 4.125-4.196 12.411-5.746 18.078-5.492 7.13.315 15.144 2.777 21.162 6.885 12.192 8.33 15.1 22.686 20.934 35.088"/><path fill="#000" d="M65.219 472.657c-2.873 2.961-5.396 6.499-8.995 8.645-4.598 2.742-10.651 3.25-15.897 3.092-10.695-.315-18.324-6.955-27.827-10.747-2.566-1.025-5.247-1.726-7.795-2.785-1.375-.578-4.633-1.638-3.968-3.731.464-1.463 3.144-2.645 4.379-3.285 7.962-4.134 16.239-4.975 25.121-4.099 6.087.604 12.219 1.217 17.965 3.442 5.483 2.12 10.511 5.247 15.643 8.076.315.175.631-.236.385-.499-6.324-6.806-14.768-11.22-23.22-14.803-10.003-4.248-20.067-7.147-27.214-15.88-1.559-1.901-3.004-3.898-4.555-5.816-.534-.657-1.831-1.664-1.559-2.645.219-.788 2.917-1.962 3.714-2.33 4.45-2.067 9.679-2.777 14.54-2.417 10.642.78 21.092 5.536 27.617 14.128 6.219 8.198 8.899 18.385 13.182 27.608.166.359.701.044.534-.315-5.886-12.753-9.311-27.731-21.906-35.789-10.449-6.692-28.738-10.213-38.767-.762-.131.123-.114.333 0 .464 5.658 6.245 9.74 13.068 17.351 17.22 7.2 3.933 15.223 6.14 22.598 9.749 3.565 1.743 7.042 3.696 10.283 5.991 1.682 1.191 3.302 2.479 4.817 3.889l.736.709c.499.893.753 1.025.762.394-.35.166-2.47-1.384-2.987-1.673-6.902-3.88-13.725-7.322-21.67-8.391-8.54-1.147-17.684-2.575-26.075.079-3.723 1.174-8.908 2.812-11.553 5.807-2.566 2.899 1.209 4.458 3.635 5.466 2.321.972 4.739 1.647 7.095 2.523 4.029 1.498 7.717 3.81 11.492 5.825 7.866 4.204 15.626 6.087 24.56 4.817 3.696-.526 7.322-1.48 10.353-3.749 2.917-2.181 5.141-5.168 7.664-7.76.28-.298-.158-.736-.438-.447h0z"/><path fill="#e4efcb" d="M63.274 478.526c.526 7.839 2.899 15.17-2.759 22.37-5.921 7.541-13.252 11.702-22.283 14.584-9.574 3.057-26.706 5.895-34.624-2.54 1.454-5.509 9.968-7.953 13.927-11.632 4.423-4.117 7.191-9.328 12.525-12.438 8.242-4.817 18.797-5.203 26.907-5.79"/><path fill="#000" d="M62.95 478.526c.377 5.045 1.603 10.283.534 15.319-1.156 5.474-5.352 9.906-9.609 13.305-7.182 5.746-16.405 8.873-25.401 10.327-4.572.736-9.328 1.051-13.918.324-2.733-.429-11.763-2.61-9.915-6.499 1.761-3.696 7.095-5.623 10.344-7.708 3.652-2.339 6.166-5.798 9.004-9.004 8.47-9.591 21.021-10.309 32.977-11.168.447-.035.447-.727 0-.701-11.22.797-23.921 1.366-32.198 10.046-4.064 4.266-7.174 8.575-12.333 11.623-3.556 2.102-7.787 4.248-9.127 8.461-.035.105 0 .228.079.307 9.398 9.512 26.969 5.685 38.023 1.577 7.393-2.75 14.093-7.016 19.042-13.226 5.553-6.972 3.766-14.768 3.144-22.975-.026-.42-.674-.42-.648-.009h0z"/><path fill="#020303" d="M146.275 473.892l1.077.429c3.688 1.48 45.836 9.03 46.125 6.525-.745 6.271-2.838 5.553-9.039 6.193-9.959 1.034-21.398 1.568-30.831-1.848-11.141-4.038-22.957-5.895-34.125-10.09-3.871-1.454-7.743-2.33-9.171 2.312-1.472 4.791-2.505 9.731-4.388 14.575-2.216 5.72-4.844 11.308-7.787 16.686-.972 1.778-1.997 3.521-3.004 5.282-.683 1.2-2.75 3.372-2.523 4.809.096.578 1.436 1.454 1.822 1.971.78 1.051 1.025 1.191.963 2.671-.105 2.812-1.34 3.083-3.67 2.207-.692-.263-1.524-1.191-2.347-.867-.552.21-.692 1.708-1.436 2.128-2.321 1.314-2.952-1.235-3.416-2.803-.569-1.936-.631-1.98-2.382-1.778-1.883.21-4.45 1.016-4.196-1.944.254-3.074 4.45-3.355 6.473-4.651 2.356-1.507 4.047-4.003 5.658-6.219 2.006-2.759 3.906-5.904 5.501-8.899 3.083-5.772 6.56-13.34 6.666-19.944.018-1.165-2.076-5.93.096-6.543-5.798 1.638-11.938 1.822-17.965 3.25-4.204.999-8.251.674-11.299 4.248-2.181 2.558-1.909 5.106-2.803 8.128-1.182 4.003-3.723 7.454-6.517 10.476-.99 1.069-2.689 2.19-3.328 3.495-.727 1.498-.175 3.32-.613 4.896-.674 2.461-4.134 4.809-6.587 3.355 1.901-1.927 2.855-4.178 2.128-6.99-.491-1.918-1.559-2.952-1.559-5.019 0-1.98.14-2.943-.21-4.861-.333-1.787-.219-3.591.359-5.308.254-.745.596-1.752 1.121-2.356.342-.394 1.752-1.086 1.839-1.226 1.06-1.655.473-4.371-1.726-5.466-3.276-1.629-7.217-.184-10.073-3.223-1.55-1.647-2.785-3.617-4.651-4.94-1.349-.955-4.458-2.216-4.196-4.379.184-1.515 2.242-1.235 3.46-1.261 3.434-.07 6.201 1.944 9.67 1.708 2.601-.184 7.436.622 9.574-1.226 1.927-1.673.526-1.988-.674-3.442-2.216-2.689-3.32-6.105-3.582-9.574-.447-5.93 3.53-10.738-2.82-15.206 2.593 2.4 5.79 4.143 8.575 6.718 4.958 4.59 8.593 9.276 10.738 15.591 1.41 4.152 1.839 6.779 6.315 7.463 6.841 1.051 17.886-.219 24.236-2.934 1.104-.473-3.504-13.716-4.152-15.241-2.619-6.166-6.569-11.684-10.686-16.931-2.89-3.679-5.431-5.763-8.855-8.391-3.048-2.33-6.525-5.781-5.387-9.968 1.305.14 3.171-.394 4.502-.044-2.409-7.717 3.46-12.017 8.803-5.553 3.565-8.873 11.667-4.528 11.203 4.073-.359 6.639-3.968 6.946-1.927 13.498 4.222 13.611 14.943 24.551 15.635 39.249 11.211-2.286 24.937 2.996 35.386 7.191z"/><g fill="#000"><path d="M146.205 474.12c4.476 1.804 9.53 2.409 14.242 3.276 6.99 1.288 14.006 2.461 21.056 3.363 2.812.359 5.65.727 8.479.823.473.018 3.232-.508 3.521-.35-.105-.053-.385.972-.674 1.778-1.042 2.908-2.785 3.267-5.632 3.547-5.886.578-11.798 1.139-17.719.999-6.779-.158-12.779-1.682-19.173-3.758-6.543-2.128-13.261-3.652-19.883-5.492-2.978-.823-5.939-1.708-8.855-2.733-2.128-.745-4.432-1.883-6.753-1.901-4.099-.035-4.8 3.67-5.711 6.955-1.892 6.797-4.029 13.279-7.033 19.699-1.41 3.013-2.925 5.974-4.537 8.882-1.41 2.54-3.635 5.15-4.756 7.813-.394.928-.587 1.498-.131 2.365.236.455.841.718 1.156 1.104.455.552 1.647 2.015 1.323 2.934l-2.514 2.225-1.498-.657c-.972-.368-.893-.534-1.936-.42-.14.018-.263.368-.394.42-1.428.543 2.085.42-1.761.876-2.75.333-1.393-1.261-2.619-2.952-.473-.648-.464-.727-1.27-.955-.788-.219-1.752.464-2.514.245l-.709.079-.823-3.714c.272-.709 2.295-1.279 2.996-1.559 4.686-1.909 7.366-5.947 10.064-10.09 3.469-5.317 6.525-11.124 8.566-17.159.902-2.68 1.804-5.685 1.778-8.549-.018-1.769-1.927-5.868-.009-6.893.272-.149.088-.569-.21-.491-7.515 1.98-15.381 2.575-22.983 4.169-6.079 1.279-7.655 4.984-8.987 10.528-.999 4.187-3.416 7.874-6.315 11.01-1.603 1.734-3.582 2.882-4.16 5.282-.604 2.505.394 5.282-2.829 6.508-.736.28-2.146 1.726-2.759-.105 0-.009 1.156-1.936 1.112-1.831.841-1.997.464-3.661-.088-5.65-.955-3.398-1.839-7.717-1.542-11.36.07-.902.482-3.136 1.139-4.134.666-1.016 1.55-.981 2.067-1.743.245-.359.394-.455.613-1.025 2.05-5.273-5.676-5.597-8.505-6.28-4.038-.972-5.299-4.607-8.374-6.849-.648-.473-1.384-.823-2.041-1.279l-1.296-1.016 1.603-2.873c.911-.666 3.232.28 4.388.569 4.125 1.034 10.668 2.505 14.776.482.893-.438 2.304-1.288 2.067-2.496-.289-1.454-2.181-2.531-2.925-3.819-1.305-2.26-2.067-4.94-2.234-7.541-.385-6.14 2.812-10.949-2.899-15.398-.272-.21-.657.149-.385.385 4.301 3.758 9.083 6.709 12.823 11.098 3.854 4.528 5.325 9.433 7.682 14.724 2.829 6.333 12.753 4.616 18.254 3.906 2.409-.315 4.809-.753 7.156-1.384.999-.272 3.661-.648 4.327-1.489.718-.902-.079-2.925-.315-3.871-1.699-6.806-4.125-13.427-7.857-19.384-3.066-4.905-6.622-9.959-10.887-13.892-2.006-1.848-4.292-3.355-6.306-5.177-1.375-1.244-3.434-3.258-3.644-5.212-.342-3.179 1.971-3.206 4.248-2.952.184.018.307-.193.263-.342-.657-2.505-1.104-5.65 1.244-7.384 2.645-1.962 5.177-.026 7.112 2.102.105.123.35.105.429-.053 1.524-3.381 4.966-6.569 8.382-3.285 2.698 2.593 2.698 7.139 1.796 10.476-.552 2.05-1.787 3.88-1.988 6.026-.219 2.426.718 4.87 1.568 7.086 4.677 12.315 13.76 22.782 14.662 36.376.009.175.158.28.324.245 12.052-2.181 24.236 2.768 35.228 7.165.298.114.42-.359.131-.473-5.492-2.198-11.036-4.353-16.765-5.86-2.523-.666-5.089-1.209-7.682-1.533-3.048-.385-6.28.307-9.223-.088-2.163-.289-1.804-2.952-2.207-4.87-.569-2.68-1.445-5.273-2.496-7.795-2.05-4.931-4.756-9.538-7.244-14.26-2.54-4.826-6.911-11.746-5.492-17.378.963-3.819 2.882-6.832 2.032-10.984-.534-2.593-2.181-5.518-5.001-6.052-.963-.184-1.874-.053-2.759.359-1.419.657-1.874 2.4-3.013 3.066-2.076 1.217-5.045-3.451-8.242-.92-1.121.885-1.647 2.347-1.822 3.714-.114.867.272 1.909.105 2.707-.377 1.822-2.058 1.454-3.836 1.454-.114 0-.245.088-.263.201-1.358 7.568 7.901 11.509 12.184 16.143 5.763 6.219 10.896 13.909 13.699 21.95.876 2.505 1.708 5.036 2.417 7.603.289 1.025.937 2.505.832 3.582-.175 1.918-2.882 2.172-4.607 2.619-4.003 1.034-8.155 1.568-12.28 1.708-2.058.07-4.143.044-6.193-.219-3.591-.464-5.177-2.137-6.377-5.431-2.829-7.83-6.946-14.26-13.603-19.462-.683-.534-5.509-3.898-5.422-4.047-.42.753 1.498 2.4 1.839 3.442.298.885.315 1.62.333 2.488.061 3.81-1.253 7.112-.508 10.966.298 1.533.771 3.031 1.454 4.432.911 1.874 2.742 3.066 2.295 5.071-.604 2.759-4.222 2.128-6.578 2.093-2.505-.035-4.852-.123-7.296-.78-1.953-.526-12.07-2.076-7.69 2.873 1.13 1.279 2.943 1.901 4.222 3.004 1.717 1.489 2.794 3.688 4.66 5.019 1.27.911 2.671 1.182 4.187 1.436 1.025.175 2.085.105 3.092.403 2.496.35 3.644 2.295 3.416 5.825-.385.219-.771.455-1.147.692-.342.683-1.034 1.226-1.375 2.041-.876 2.058-.832 4.003-.657 6.184.158 1.927-.07 4.169.333 6.07.21.972.368 1.034.709 1.953 1.261 3.398 1.121 5.921-1.323 8.654-.149.166-.07.377.123.455 2.671 1.095 5.72-.455 6.753-3.136.403-1.042.131-1.909.368-2.952.491-2.19 1.489-3.609 2.996-5.063 1.866-1.804 3.539-3.898 4.896-6.105 3.416-5.562 2.26-13.752 9.661-16.029 5.667-1.743 11.912-2.242 17.754-3.153.709-.114 6.298-1.095 6.017-1.533-.079-.123-.42 2.768-.385 3.013.403 2.855.867 4.432.289 7.515-.666 3.53-1.962 6.946-3.442 10.213-2.444 5.396-5.413 10.572-8.925 15.354-2.19 2.987-4.178 4.914-7.576 6.333-1.2.499-2.593.99-3.346 2.128-.981 1.498-.78 3.442.981 4.012 1.892.613 3.565-1.261 4.931.963.622 1.007.438 2.523 1.498 3.311.727.543 1.62.596 2.409.07.219-.149.368-.464.587-.587 1.296-.736-2.006-1.515 2.225-1.095.28.026.517.385.797.438 2.216.438 3.626.718 3.968-1.997.193-1.585-.324-1.98-.955-3.276-.736-1.515-1.112-.061-.981-2.61.096-1.944 1.104-2.961 2.058-4.563 3.346-5.588 6.298-11.439 8.838-17.439 1.288-3.031 2.435-6.096 3.372-9.249.885-2.987 1.288-6.447 2.61-9.267 2.347-5.019 6.385-2.987 10.187-1.638 3.363 1.191 6.779 2.207 10.222 3.153 7.322 2.006 14.706 3.731 21.889 6.21 6.263 2.163 12.657 2.925 19.27 2.864 5.553-.053 11.5-.228 16.975-1.235 3.363-.622 4.152-2.671 4.607-5.921.044-.307-.377-.447-.482-.131-.377 1.147-7.585-.035-8.391-.123-5.177-.561-10.327-1.358-15.468-2.198-7.515-1.235-15.924-1.944-23.045-4.8-.28-.131-.403.324-.131.438z"/><path d="M105.072 468.908c1.06.499 2.312.42 3.407.053.569-.193 1.121-.455 1.612-.815.438-.324.937-.736 1.174-1.244.175-.385-.307-.657-.561-.324-.298.394-.596.753-.999 1.051a5.5 5.5 0 0 1-1.384.727c-.928.333-2.032.482-2.952.053-.342-.14-.631.342-.298.499h0zm-88.246 49.593c8.049.963 11.465-6.683 13.646-13.095 1.288-3.775 2.251-7.699 4.52-11.036 3.425-5.045 8.689-8.4 14.408-10.265.35-.114.21-.657-.149-.552-4.879 1.366-9.521 4.16-12.911 7.936-2.785 3.109-4.257 6.709-5.501 10.616-2.181 6.849-4.87 16.949-14.006 15.915-.324-.053-.324.438-.009.482h0zm16.055-1.331c5.632-3.74 6.385-10.519 8.277-16.476 2.453-7.717 8.794-14.452 16.563-16.931.491-.158.289-.92-.21-.771-7.025 2.093-13.182 8.093-15.976 14.82-2.663 6.42-2.549 14.715-8.89 18.954-.245.166-.009.569.236.403h0zm-7.244-36.604c-4.169-2.584-7.042-6.385-9.179-10.747-1.498-3.074-2.978-7.436-6.779-8.233-.42-.088-.604.561-.175.648 3.95.867 5.334 6.114 7.051 9.197 2.172 3.924 5.019 7.165 8.873 9.503.228.149.447-.219.21-.368h0zm19.278-3.81c-5.833 1.279-12.481-.561-17.308-3.942-2.137-1.498-3.88-3.477-5.299-5.667-1.375-2.12-2.969-5.133-1.296-7.498.201-.289-.272-.657-.491-.385-1.699 2.076-.674 4.914.473 7.007 1.331 2.417 3.171 4.695 5.352 6.385 5.063 3.933 12.368 6.044 18.7 4.598.324-.07.193-.569-.131-.499h0zm8.303-36.761c-6.499-4.257-14.68-8.251-22.116-3.53-4.817 3.057-8.995 11.474-15.144 5.597-.228-.219-.569.123-.342.342 1.866 1.787 4.108 2.925 6.674 1.988 2.488-.911 4.371-3.101 6.236-4.887 3.013-2.882 6.595-4.642 10.887-4.458 4.949.21 9.495 2.742 13.568 5.36.254.175.499-.236.236-.412h0zm-39.414.963c2.733 1.874 5.527.245 7.647-1.752 2.855-2.689 5.045-6.017 8.006-8.61 1.375-1.2 2.969-2.216 4.844-2.216.324 0 .42-.526.079-.587-3.153-.543-5.877 2.531-7.734 4.633-2.409 2.724-4.607 6.122-7.778 8.032-1.568.946-3.232 1.06-4.782.018-.298-.193-.578.28-.28.482h0zm72.647-32.688c-6.473-2.216-11.229-8.864-13.489-15.065-.885-2.426-1.06-4.852-1.524-7.366-.324-1.743-.946-4.344-3.057-4.607-.438-.053-.464.596-.096.727 2.4.832 2.47 4.677 2.742 6.762.342 2.584 1.174 5.028 2.321 7.366 2.671 5.448 7.033 10.747 12.954 12.718.342.131.491-.412.149-.534h0z"/><path d="M82.798 407.263c-6.271-2.838-8.987-9.819-11.877-15.582-1.051-2.111-2.277-3.95-3.933-5.65-.639-.657-3.215-3.241-4.055-1.515-.158.315.21.587.473.368 1.182-.981 3.994 2.768 4.59 3.521 1.507 1.883 2.488 4.099 3.565 6.245 2.558 5.08 5.466 10.686 10.94 13.103.342.149.639-.342.298-.491h0zM70.212 551.198c4.774-.657 8.076-4.765 10.546-8.549 1.515-2.321 2.82-4.739 3.88-7.296.657-1.568 1.279-3.144 1.629-4.809.342-1.62.604-3.223 1.121-4.8.088-.272-.35-.464-.473-.201-.561 1.261-.788 2.601-1.042 3.95-.289 1.524-.701 2.943-1.27 4.388-1.069 2.724-2.347 5.299-3.906 7.769-2.47 3.915-5.746 8.286-10.642 9.022-.324.061-.175.569.158.526h0z"/><path d="M76.063 547.949c-.403.666-.596 1.515-.753 2.269-.175.858-.35 1.918.018 2.759.175.403.508.666.946.718.307.035.377-.49.07-.543-.893-.14-.692-1.612-.613-2.251.07-.552.193-1.104.35-1.638.105-.359.219-.736.412-1.06.166-.272-.263-.526-.429-.254h0zm-8.049-3.293c4.318-.552 7.594-4.073 10.117-7.349 1.568-2.041 2.961-4.196 4.117-6.49 1.314-2.619 2.417-5.343 3.688-7.979.158-.315-.315-.604-.482-.28-2.339 4.625-4.082 9.398-7.174 13.62-2.531 3.46-5.868 7.314-10.336 8.006-.263.026-.201.508.07.473h0z"/></g><path fill="#a0cd53" d="M203.023 484.227c-10.204-26.119-34.519-44.846-50.469-67.68-14.26-20.408-24.437-45.897-30.306-69.94-1.778-7.287-2.006-14.838-2.645-22.274-.324-3.758-.736-7.506-1.445-11.211-.526-2.777-1.638-5.807-1.165-8.654.368-2.181 2.006-3.617 2.698-5.571 1.182-3.337-1.507-5.124-1.358-7.603-.193 3.276-2.978 5.588-5.185 7.655-2.724 2.549-3.346 4.616-5.08 7.576-1.761 3.004-5.807 5.702-8.198 8.295-2.742 2.978-5.36 6.061-7.795 9.293-9.249 12.271-16.607 27.678-13.314 43.383.061.307.131.613.201.92 1.191 5.054 3.906 6.079 6.744 9.863 7.419 9.88 8.934 25.366 11.833 37.015 3.758 15.109 11.763 29.132 22.125 40.659 9.083 10.108 20.067 19.585 33.845 20.838 16.449 1.498 33.634 2.619 49.514 7.436"/><g fill="#000"><path d="M203.277 484.157c-10.055-25.217-31.716-42.647-47.657-63.879-9.162-12.201-16.353-25.839-22.134-39.932-5.816-14.181-11.203-29.491-12.692-44.811-.815-8.356-1.112-16.695-2.89-24.919-.674-3.109-1.147-5.396.324-8.417.534-1.104 1.366-2.023 1.761-3.215.963-2.934-1.182-4.852-1.349-7.682-.018-.315-.534-.438-.587-.079-.692 4.66-5.036 6.727-7.506 10.318-1.253 1.822-2.05 3.906-3.355 5.693-1.647 2.26-3.889 3.915-5.921 5.807-6.552 6.122-12.236 13.962-16.519 21.819-4.248 7.795-7.209 16.511-7.06 25.48.053 3.425.368 7.287 1.752 10.458 1.594 3.661 5.133 6.114 7.279 9.433 4.844 7.498 6.631 16.651 8.409 25.261 1.839 8.899 3.968 17.553 7.822 25.839 7.182 15.442 19.059 30.945 33.748 39.923 8.864 5.413 18.105 5.93 28.204 6.858 12.841 1.182 25.655 2.733 38.058 6.403.367.105.526-.464.158-.578-8.286-2.461-16.773-3.994-25.331-5.071-9.153-1.147-18.7-1.095-27.748-2.89-16.309-3.223-29.491-17.746-38.496-30.866-4.887-7.121-8.882-14.873-11.667-23.054-2.435-7.147-3.626-14.592-5.273-21.95-1.559-6.955-3.46-14.128-7.358-20.189-1.515-2.356-3.495-4.187-5.282-6.315-3.179-3.775-3.679-9.162-3.67-13.927.009-17.203 11.185-34.799 23.421-46.221 2.321-2.163 4.931-4.064 6.639-6.788.893-1.419 1.542-2.978 2.444-4.388 1.358-2.111 3.179-3.512 4.87-5.299.815-.867 3.582-4.012 2.444-4.809.245.175 1.086 2.864 1.165 3.127 1.069 3.547-1.2 5.124-2.242 7.971-.885 2.426-.236 5.063.307 7.489 1.095 4.94 1.682 9.924 2.093 14.96.683 8.409 1.358 16.572 3.504 24.762 4.222 16.143 10.055 31.926 17.711 46.764 8.242 15.968 19.086 29.57 30.989 42.91 12.017 13.471 24.35 27.153 31.156 44.128.096.333.604.193.482-.123h0z"/><path d="M138.031 471.124c-2.759-13.489-1.41-26.82 4.502-39.293 2.015-4.248 2.777-7.314 1.331-11.833-1.664-5.212-1.025-11.054.963-16.081.149-.377-.455-.534-.604-.166-1.708 4.327-2.4 9.214-1.603 13.822.534 3.092 2.111 5.501 1.428 8.803-.622 2.996-2.409 5.676-3.565 8.487-4.809 11.658-5.492 24.122-2.934 36.393.061.315.543.184.482-.131h0zm-23.658-36.446c-.342-6.578 1.48-13.83 5.597-19.059.201-.254-.158-.622-.359-.359-4.222 5.325-6.105 12.692-5.755 19.419.018.333.534.333.517 0h0zm11.483-27.415c.394 0 .394-.613 0-.613-.403 0-.403.613 0 .613h0zm-21.643 6.692c-2.785-2.794-4.362-6.438-5.08-10.283-.701-3.758-.079-7.235-.21-10.984-.061-1.839-.666-3.626-.745-5.448-.105-2.654.963-5.352 2.093-7.708 1.909-3.985 4.695-7.471 7.515-10.844 3.381-4.055 7.06-7.944 10.222-12.175 2.339-3.127 5.658-7.699 4.082-11.833-.131-.342-.674-.201-.552.149 1.988 5.676-4.563 12.271-7.927 16.125-4.371 5.01-9.057 10.029-12.455 15.766-1.629 2.75-3.311 6.114-3.512 9.346-.123 1.927.499 3.758.666 5.667.166 1.892-.105 3.749-.184 5.641-.245 6.052 1.34 12.578 5.711 16.957.245.236.613-.14.377-.377h0zm-10.301-73.032c1.016-2.409 2.409-4.59 3.74-6.823 1.121-1.866 1.98-3.801 2.917-5.763 1.06-2.198 2.54-3.688 4.572-5.028 1.568-1.034 3.179-2.006 4.458-3.416 1.217-1.34 2.312-2.943 2.996-4.625.718-1.778.683-3.407.692-5.282.018-4.59 4.231-5.904 6.044-9.547.175-.359-.359-.674-.534-.315-1.489 2.969-5.08 4.45-5.939 7.787-.552 2.155.061 4.353-.692 6.508-.85 2.435-2.68 4.774-4.695 6.35-1.568 1.226-3.372 2.146-4.861 3.477-1.401 1.253-2.216 2.873-2.943 4.572-1.787 4.152-4.485 7.804-6.21 11.973-.131.298.342.42.455.131h0zm68.512 136.666c-6.727-2.61-12.902-7.848-14.233-15.249-1.568-8.68 3.267-17.168 4.493-25.594.044-.315-.429-.455-.482-.131-1.507 8.82-6.727 17.93-4.423 27.048 1.804 7.13 7.909 11.938 14.496 14.496.35.131.499-.438.149-.569h0zm-66.095-98.38c2.304-4.695 5.711-8.654 9.179-12.517 3.285-3.661 6.823-7.436 9.022-11.886.175-.359-.324-.657-.534-.315-2.707 4.502-5.965 8.417-9.416 12.359-3.285 3.758-6.464 7.603-8.671 12.122-.131.272.28.508.42.236h0zm-8.82-43.103c.613-4.248 4.169-7.165 6.394-10.59.201-.315-.298-.604-.499-.289-2.251 3.469-5.798 6.429-6.403 10.738-.044.333.464.473.508.14h0z"/></g><path fill="#020303" d="M543.685 367.19c-5.912 4.949-11.912 9.749-19.173 13.007-23.763 10.686-48.087 20.329-73.339 26.864-21.845 5.65-43.418 12.99-63.984 22.335-10.073 4.572-26.137 7.743-33.319 16.712-5.413 6.762-4.607 17.667-5.65 25.769-1.577 12.227-4.756 24.306-8.023 36.034-1.901 6.841-2.742 22.896-7.673 27.599-6.166 5.868-5.29-.175-4.353-4.975 1.699-8.75 5.396-17.124 6.849-26.18 2.015-12.543 5.606-27.293 4.485-40.055-2.339-26.487-27.888-8.671-38.39-.937-7.708 5.667-14.102 12.937-21.705 18.639-2.794 2.093-5.956 2.698-8.794 4.546-3.609 2.356-5.886 6.613-8.741 9.757-4.66 5.133-9.696 9.871-15.757 13.296-2.882 1.629-6.403 2.356-8.671 4.677-1.734 1.769-2.812 4.336-4.59 6.122-4.598 4.616-12.508 4.581-16.178 9.906-2.917 4.239-4.651 10.467-6.928 15.197-6.771-2.006 2.032-18.683 5.334-22.248 6.14-6.631 14.916-13.655 22.484-18.621 8.382-5.509 22.738-14.452 25.909-24.578-11.413-3.959-25.261 3.723-36.788 4.318-4.581.236-9.136.876-13.716 1.121-5.045.272-12.517 1.191-17.097-1.366-1.944-1.086-4.677-2.023-6.298-3.434 8.093.596 16.353-.526 24.42-.631 8.006-.114 15.845-1.804 23.553-3.854 17.325-4.598 38.18-7.314 52.992-17.719 8.566-6.017 14.89-13.436 24.253-18.306 14.111-7.349 27.424-9.004 42.498-14.26l36.008-12.315c3.39-1.121 6.613-2.698 10.09-3.512 3.582-.841 7.358-.955 10.817-2.277 4.178-1.603 5.115-3.854 7.62-7.13 1.831-2.4 4.108-4.178 7.244-4.423 5.141-.403 11.29.569 16.029-1.874 4.642-2.4 9.267-4.94 14.102-7.174 11.211-5.159 22.318-10.546 33.363-16.038l65.972-33.407 9.941-4.914c3.381-1.655 8.12-2.925 11.054-5.255 3.363-2.671 4.984-6.385 9.136-8.417 5.133-2.514 11.08-1.13 16.511-1.997 7.252-1.156 14.356-4.029 21.6-5.483 15.538-3.127 31.357-4.441 47.079-6.254 6.946-.797 18.131-4.003 24.972-2.023.508 5.387-3.486 4.292-5.431 7.682-1.568 2.733-.403 5.588-2.934 8.391-2.61 2.899-9.976 3.179-13.559 3.871-7.191 1.393-14.435 3.066-21.705 4.704-15.538 3.477-31.918 2.768-47.64 4.572-15.17 1.743-29.299 12.657-42.796 19.357-8.023 3.968-14.496 9.661-21.083 15.179z"/><path fill="#000" d="M543.509 367.006c-4.923 4.108-9.941 8.146-15.591 11.211-5.79 3.144-12.061 5.562-18.131 8.128-12.867 5.448-25.926 10.484-39.223 14.776-12.622 4.073-25.532 7.077-38.206 10.966-12.446 3.828-24.726 8.233-36.726 13.305-5.483 2.312-10.861 4.826-16.467 6.832-4.511 1.612-9.057 3.153-13.41 5.15-8.496 3.898-14.531 9.258-16.265 18.753-.893 4.852-.902 9.81-1.428 14.706-.771 7.174-2.312 14.303-4.003 21.319-1.428 5.939-3.346 11.781-4.625 17.746-.928 4.309-1.436 8.698-2.304 13.016-.832 4.152-1.734 9.232-4.809 12.376-.92.937-3.188 3.092-4.441 1.384-.499-.674.009-2.759.123-3.547.42-3.057 1.182-6.079 2.015-9.048 1.647-5.877 3.723-11.641 4.905-17.649 1.209-6.149 2.242-12.368 3.25-18.551 1.699-10.371 6.893-39.958-11.868-37.76-6.166.727-12.009 4.055-17.159 7.322-7.489 4.739-14.111 10.406-20.636 16.388-2.172 1.997-4.353 3.977-6.639 5.842-3.013 2.461-5.807 3.723-9.223 5.404-4.966 2.444-7.436 6.99-10.975 11.001-4.231 4.791-9.083 9.293-14.575 12.587-3.723 2.234-8.198 3.074-10.931 6.674-1.98 2.601-3.363 5.168-6.289 6.911-2.067 1.226-4.353 1.997-6.543 2.952-4.309 1.866-6.823 4.187-8.89 8.426-.999 2.041-1.813 4.169-2.654 6.28-.491 1.235-1.147 4.327-2.488 4.485-1.48.166-1.655-1.664-1.734-2.908-.254-3.959 1.98-8.435 3.74-11.825 4.8-9.241 13.892-15.976 22.195-21.915 8.006-5.728 16.747-10.511 23.675-17.614 2.838-2.908 5.255-6.175 6.595-10.038.053-.158-.061-.315-.201-.359-11.071-3.46-22.108 2.128-32.96 3.871-6.955 1.112-14.207 1.375-21.232 1.787-2.82.166-5.65.28-8.461-.114-1.769-.245-3.276-.683-4.887-1.445-1.147-.534-4.16-1.48-4.887-2.461-.972-1.296-.403.184-.123-.333.044-.07 3.057.088 2.864.079 1.682.018 3.363-.026 5.036-.088l10.8-.578c6.683-.307 13.147-.639 19.708-2.023 12.096-2.549 24.35-5.492 36.253-8.829 11.089-3.109 21.223-7.533 30.192-14.855 5.168-4.222 10.029-8.864 15.705-12.411 6.087-3.81 12.937-6.385 19.769-8.505 6.166-1.918 12.446-3.451 18.639-5.29 7.103-2.111 14.058-4.695 21.065-7.112l20.899-7.086c3.013-1.007 5.947-2.269 8.969-3.258 3.512-1.139 7.174-1.34 10.738-2.216 4.669-1.156 7.016-3.486 9.801-7.2 2.742-3.652 5.492-5.106 10.064-5.255 2.978-.096 5.974.114 8.925-.35 6.044-.946 11.518-5.089 16.949-7.699l19.375-9.144c26.855-12.954 53.228-26.881 79.899-40.212 5.991-2.996 11.973-5.851 18.122-8.496 5.001-2.155 7.209-5.728 11.168-9.171 5.763-5.001 13.743-2.873 20.654-4.134 6.639-1.217 12.972-3.688 19.567-5.106 14.706-3.171 29.798-4.379 44.723-6.052 5.79-.648 11.465-1.936 17.238-2.619 2.575-.307 5.212-.517 7.804-.263 5.466.552.762 4.344-1.235 5.974-4.073 3.32-1.463 9.433-7.112 11.754-4.835 1.988-10.712 2.102-15.819 3.162-6.981 1.454-13.9 3.285-20.925 4.537-7.612 1.349-15.346 1.831-23.054 2.26-12.7.701-24.875 1.025-36.612 6.42-5.921 2.724-11.527 6.07-17.176 9.311-5.378 3.083-11.08 5.667-16.23 9.118-5.045 3.372-9.644 7.349-14.286 11.238-.28.236.123.639.403.403 4.931-4.143 9.828-8.374 15.267-11.86 5.212-3.337 10.905-5.947 16.265-9.039 11.641-6.701 22.808-12.762 36.42-13.971 13.042-1.156 26.233-1.007 39.161-3.293 7.025-1.244 13.944-3.074 20.925-4.528 4.765-.999 9.915-1.27 14.566-2.707 1.533-.473 3.092-1.086 4.196-2.286 1.971-2.137 1.594-4.896 2.584-7.428 1.62-4.152 6.044-3.758 5.842-8.838-.009-.131-.088-.263-.228-.298-6.56-1.647-13.585.096-20.093 1.235-9.433 1.655-19.059 2.26-28.572 3.407-9.232 1.112-18.595 2.251-27.608 4.581-4.511 1.165-8.934 2.68-13.471 3.723-4.809 1.112-9.433.858-14.286 1.27-3.048.263-5.982.999-8.461 2.873-3.267 2.461-5.203 6.158-8.794 8.286-3.285 1.953-7.095 3.022-10.537 4.695l-12.744 6.333-53.824 27.328-53.027 25.944c-4.87 2.549-9.311 2.969-14.715 3.031-3.232.035-6.175.096-8.811 2.198-2.417 1.918-3.635 4.817-5.807 6.946-3.617 3.539-8.803 3.617-13.471 4.537-4.45.876-8.601 2.838-12.884 4.274l-14.426 4.861c-9.381 3.206-18.692 6.736-28.204 9.538-16.449 4.835-32.531 8.505-46.037 19.699-7.366 6.096-14.303 12.219-23.141 16.134-9.057 4.012-18.779 6.289-28.396 8.514-9.258 2.137-18.464 4.94-27.853 6.385-5.606.858-11.238.823-16.887 1.139-5.763.324-11.492.701-17.255.342-.324-.018-.359.394-.149.552 10.362 7.743 23.027 4.756 34.974 3.863 6.324-.473 12.21-1.874 18.35-3.425 3.381-.858 6.806-1.673 10.283-2.006 1.761-.166 9.407-.893 9.854 1.454.394 2.102-4.222 6.858-5.404 8.128-2.006 2.163-4.231 4.117-6.534 5.956-4.476 3.574-9.302 6.622-14.058 9.792-5.614 3.74-10.984 7.883-15.985 12.411-3.311 2.996-6.49 5.991-8.785 9.845-2.181 3.679-9.293 16.23-2.461 18.814.114.044.28-.026.333-.131 2.023-4.362 3.381-9.065 5.737-13.27 2.566-4.581 6.613-6.035 11.203-8.023 3.031-1.314 5.553-2.812 7.541-5.501 1.769-2.391 3.004-4.686 5.72-6.219 1.936-1.095 4.099-1.734 6.052-2.794 8.882-4.809 14.54-12.569 21.056-19.918 3.442-3.88 8.128-4.835 12.236-7.682 4.099-2.838 7.717-6.482 11.369-9.845 5.614-5.159 11.465-9.924 17.886-14.049 5.028-3.232 10.625-6.508 16.607-7.515 21.03-3.53 13.051 32.434 11.159 43.006-.858 4.809-1.533 9.696-2.619 14.461-1.2 5.29-3.013 10.414-4.476 15.643-.491 1.761-4.59 13.375-.823 14.251 1.673.394 4.16-2.47 4.958-3.53 1.857-2.47 2.707-5.728 3.416-8.68 1.787-7.384 2.601-14.899 4.598-22.248 2.899-10.633 5.641-21.416 6.92-32.382 1.086-9.328.044-20.146 7.48-27.188 6.447-6.105 15.635-8.663 23.789-11.597 9.749-3.512 19.068-8.111 28.764-11.781 23.491-8.899 48.06-14.076 71.727-22.397 11.404-4.012 22.633-8.514 33.739-13.305 5.527-2.382 11.211-4.616 16.379-7.725 4.8-2.882 9.153-6.429 13.436-10.003.236-.175-.114-.526-.359-.324z"/><path fill="#020303" d="M409.138 304.222c1.445-2.584 2.952-1.086 5.606.911 4.178 3.136 9.302 5.334 13.734 8.417 10.476 7.296 20.584 15.188 31.821 21.319 14.47 7.901 30.192 15.179 46.633 17.658 12.315 1.857 36.087-11.036 45.371-2.505.42.385-30.262 14.575-35.351 14.794-12.254.534-24.508-5.194-35.43-10.082-5.115-2.286-8.759-5.413-13.401-8.216-5.974-3.609-13.138-4.826-19.103-8.601-5.282-3.346-10.432-7.34-15.293-11.299-3.407-2.768-7.515-6.92-11.597-8.584-4.616-1.883-8.882-.657-13.322-3.539-3.039-1.971-7.498-8.601-.455-8.417.254-.762.517-1.384.788-1.857z"/><path fill="#000" d="M409.375 304.362c1.874-2.698 6.902 2.216 8.514 3.215l8.181 4.739c5.781 3.582 11.168 7.857 16.73 11.763 10.765 7.559 22.116 14.084 34.134 19.454 5.763 2.575 11.667 4.844 17.737 6.595 4.87 1.401 10.125 2.925 15.241 2.89 8.557-.061 16.922-3.346 25.278-4.835 4.274-.762 9.153-1.445 13.357.018.412.14 2.645.928 2.978 1.463.596.937.394-.105.009.534-.315.508-2.041 1.06-2.549 1.305-6.385 3.144-12.919 6.026-19.506 8.733-3.039 1.253-6.105 2.514-9.249 3.495-4.152 1.305-8.461.858-12.709.079-12.7-2.33-25.252-8.277-35.912-15.398-5.991-4.003-12.534-5.798-18.972-8.864-7.121-3.381-13.568-8.811-19.559-13.857-4.266-3.582-8.303-7.717-13.971-8.829-3.635-.709-7.533-.622-10.616-2.987-2.453-1.874-5.746-7.314-.149-7.471.149 0 .254-.096.307-.228l.762-1.787c.175-.359-.359-.666-.534-.315-1.147 2.347-4.73 1.498-4.581 4.633.158 3.311 4.029 6.254 6.788 7.296 2.917 1.104 6.096.937 9.083 1.743 4.187 1.13 7.436 4.064 10.651 6.832 5.676 4.887 11.649 9.696 18.035 13.62 6.193 3.801 13.489 5.159 19.681 8.952 2.952 1.804 5.711 3.898 8.68 5.676 3.285 1.962 6.849 3.425 10.353 4.949 9.442 4.108 22.116 9.854 32.592 6.631 7.699-2.374 15.162-5.895 22.475-9.241 2.864-1.314 5.807-2.566 8.557-4.09 1.358-.753 1.585-.587.788-1.717-1.857-2.654-7.699-2.663-10.449-2.54-5.001.219-9.933 1.436-14.776 2.593-5.255 1.253-10.616 2.777-16.046 2.996-7.042.28-14.61-2.277-21.197-4.511-16.791-5.702-32.539-14.514-47-24.7-7.261-5.115-14.321-10.301-22.02-14.724-1.734-.999-3.442-2.015-5.063-3.179-1.086-.78-2.444-2.225-3.793-2.549-1.366-.333-1.944.245-2.724 1.358-.21.28.263.552.464.263z"/><path fill="#020303" d="M358.415 159.209c-2.584 27.302-.158 55.523 9.591 81.3 4.379 11.579 11.912 21.565 19.121 31.497 7.147 9.854 13.725 20.084 20.356 30.253 1.953 2.987 3.556 6.228 5.623 9.144.928 1.323 3.486 4.476 5.422 4.476 4.581-.018-1.375-6.683-2.198-8.251-2.006-3.854-3.705-7.778-4.546-12.07-1.752-8.873.342-17.781 5.571-25.121 9.521-13.384 22.283-21.24 26.548-38.487 4.537-18.324.193-43.269-4.896-61.111-7.436-26.067-11.211-54.857-2.181-81.204 7.209-21.039 23.991-40.458 40.624-54.384 11.229-9.398 34.344-17.124 28.826-34.948-11.825 16.213-36.621 25.83-55.575 30.043-18.692 4.16-32.802 13.217-46.186 27.398-25.357 26.837-42.621 64.658-46.098 101.464z"/><g fill="#000"><path d="M358.117 159.209c-1.831 20.005-1.112 40.282 3.232 59.937 2.093 9.468 4.835 19.068 9.118 27.801 4.432 9.03 10.511 17.097 16.379 25.226 6.271 8.671 12.131 17.623 17.973 26.592 2.619 4.029 4.905 8.312 7.629 12.254 1.288 1.866 3.407 5.098 5.991 5.17 4.222.12.709-5.012-.307-6.484-5.29-7.655-7.901-17.36-6.017-26.583 3.539-17.325 21.17-26.82 28.764-42.078 7.463-14.995 5.833-33.555 3.136-49.532-3.285-19.445-10.178-37.882-11.737-57.678-1.655-20.995 1.682-41.955 12.341-60.314 9.941-17.115 24.543-33.135 41.272-43.83 10.414-6.657 24.832-14.864 20.68-29.474-.079-.272-.412-.28-.561-.07-9.162 12.236-23.597 19.69-37.69 24.77-13.296 4.791-27.345 6.525-39.879 13.384-13.13 7.182-23.947 18.008-33.17 29.658-9.828 12.411-17.895 26.198-24.096 40.755-6.849 16.073-11.352 33.1-13.06 50.495-.044.394.569.385.604 0 2.593-26.233 11.579-51.748 25.375-74.179 13.103-21.31 31.103-42.017 55.102-50.968 10.8-4.029 22.265-5.711 33.039-9.959 9.88-3.898 19.559-8.969 27.477-16.134 1.848-1.673 3.582-3.46 5.168-5.378 2.339-2.838 1.962 1.454 1.901 3.442-.149 4.905-2.873 9.048-6.28 12.385-6.482 6.341-14.925 10.099-22.029 15.617-18.919 14.689-36.087 35.719-43.033 58.886-7.883 26.286-3.425 53.762 3.705 79.636 6.412 23.246 12.201 53.666-2.82 74.81-6.499 9.144-15.819 16.292-21.31 26.163-5.667 10.187-5.054 21.626-.14 31.944.788 1.647 1.664 3.066 2.698 4.563.491.709.99 1.41 1.401 2.155.315.569.832 1.235.815 1.918-.079 2.523-3.197.701-4.152-.175-4.695-4.327-7.62-11.378-11.089-16.703-7.83-12.017-16.195-23.597-24.367-35.377-8.295-11.956-13.795-24.656-17.308-38.776-3.486-14.023-5.08-28.475-5.141-42.91-.026-6.998.324-13.979.955-20.943.061-.403-.534-.403-.569-.018zm70.922-99.247c-3.416 6.087-5.965 12.622-9.46 18.665-3.547 6.122-8.873 10.528-13.068 16.143-4.283 5.728-7.033 12.604-9.617 19.226-2.978 7.647-5.501 15.486-6.762 23.614-1.13 7.252-1.253 14.61.053 21.854 1.41 7.839 4.196 15.363 5.571 23.211 3.004 17.141-1.533 34.72-2.032 51.914-.219 7.778.788 15.381-.175 23.115-.683 5.492-1.226 11.439 3.46 15.311.368.298.893-.219.526-.526-5.238-4.336-3.6-11.387-2.917-17.281.797-6.814-.35-13.752-.175-20.619.412-15.67 4.16-31.453 2.654-47.132-.701-7.279-2.917-14.251-4.695-21.31-1.953-7.769-2.855-15.556-2.111-23.562.753-8.137 2.838-16.081 5.571-23.763 2.636-7.41 5.483-15.197 9.836-21.801 3.95-5.991 9.687-10.441 13.454-16.572 3.968-6.464 6.613-13.629 10.318-20.233.14-.289-.272-.526-.429-.254h0z"/><path d="M357.636 168.8c-.088 16.134 7.139 29.973 15.46 43.339 3.591 5.763 6.885 10.905 12.061 15.363 5.255 4.52 9.223 8.628 8.864 16.055-.018.333.49.324.517 0 .359-5.308-1.375-9.512-5.185-13.182-1.944-1.874-4.099-3.512-6.07-5.343-2.82-2.619-4.896-5.597-6.937-8.838-9.214-14.619-18.271-29.526-18.227-47.386 0-.315-.482-.315-.482-.009h0zm42.639 89.052c-2.242-8.82.359-19.235 4.274-27.328 3.793-7.83 11.536-13.524 16.878-20.294 9.092-11.527 15.039-26.137 17.15-40.65.044-.315-.412-.464-.491-.131-1.901 8.382-3.871 16.546-7.454 24.411-3.758 8.26-8.917 15.495-15.039 22.169-5.29 5.763-10.642 10.809-13.235 18.367-2.628 7.664-4.669 15.573-2.619 23.597.096.342.622.201.534-.14h0zm32.215-43.479c.149 12.464-5.623 24.28-13.095 33.958-.175.228.219.526.394.307 7.655-9.635 13.366-21.748 13.182-34.265.009-.315-.482-.315-.482 0h0zM229.554 731.72l.999-6.806c3.346-24.096 19.804-43.269 19.962-67.952.14-23.159-8.12-46.685-18.788-66.971-11.43-21.74-19.988-53.508-2.855-74.687a7.47 7.47 0 0 1-.736-.753c-15.854 9.171-29.106 23.781-39.091 39.52-11.649 18.359-23.833 35.369-29.903 56.802-6.21 21.906-15.573 45.345-13.822 68.53 1.726 22.782 16.502 44.373 15.153 67.391-1.086 18.534-9.915 36.971-7.182 55.707 1.699 11.632 6.604 22.064 12.884 31.558-1.445-15.46 8.934-35.955 21.074-47.535 9.906-9.451 25.27-15.608 33.004-27.013 5.439-8.049 7.76-18.113 9.302-27.792z"/><path d="M230.412 731.956c1.2-7.647 2.374-15.039 4.923-22.379 2.409-6.937 5.457-13.638 8.26-20.426 5.728-13.892 8.855-27.345 7.428-42.428-1.472-15.582-6.175-30.7-12.499-44.96-5.833-13.165-12.981-25.322-16.257-39.512-3.652-15.766-3.074-33.056 7.305-46.247.342-.429.42-.99 0-1.419l-.736-.753c-.307-.315-.832-.377-1.217-.158-19.348 11.378-32.25 28.756-44.18 47.281-6.254 9.705-12.534 19.436-17.588 29.833-5.168 10.625-8.207 21.871-11.667 33.126-6.902 22.458-13.506 45.468-7.568 68.915 2.768 10.914 7.165 21.328 10.099 32.198 3.328 12.35 3.188 23.912.604 36.385-2.61 12.595-6.517 25.322-5.36 38.329 1.121 12.604 6.499 24.324 13.34 34.799.508.771 1.953.552 1.874-.508-1.62-21.188 13.095-42.341 29.763-53.938 7.909-5.501 16.703-10.449 22.729-18.149 6.683-8.54 9.136-19.515 10.817-29.991.193-1.209-1.647-1.726-1.848-.508-1.909 11.588-4.782 23.737-13.279 32.373-7.358 7.48-16.949 12.227-25.094 18.735-14.496 11.579-26.557 32.478-25.094 51.476l1.874-.508c-6.403-9.801-11.544-20.68-12.919-32.417-1.393-11.868 1.717-23.605 4.274-35.106 2.269-10.23 4.02-20.426 2.514-30.902-1.533-10.686-5.431-20.829-8.82-31.033-3.582-10.791-6.298-21.591-5.947-33.047.377-12.411 3.416-24.56 6.893-36.42 3.241-11.071 6.166-22.475 10.336-33.231 4.143-10.712 9.915-20.697 16.02-30.402 6.692-10.642 13.235-21.573 21.284-31.252 3.828-4.607 7.962-8.96 12.429-12.946 1.253-1.121 13.804-12.079 15.074-10.782v-1.419c-16.703 21.24-9.705 50.881 1.279 73.085 7.515 15.197 14.435 30.341 17.833 47.071 1.682 8.286 2.68 16.914 2.155 25.375-.491 7.883-2.689 15.503-5.457 22.861-2.864 7.629-6.315 15.022-9.162 22.651-3.171 8.487-4.73 16.94-6.105 25.856-.193 1.139 1.515 1.62 1.69.491z"/><path d="M165.614 831.178c-3.688-5.912-3.968-13.489-3.898-20.268.07-7.366.666-14.952 2.058-22.186 3.407-17.667 11.903-33.459 20.461-49.068 8.014-14.627 15.162-29.36 18.131-45.906 2.952-16.449 3.048-33.424 1.384-50.014-1.699-16.975-6.762-36.148 1.953-52.054.175-.315-.307-.604-.491-.289-7.322 12.7-5.168 28.694-3.328 42.551 2.453 18.446 3.171 37.208.403 55.681-2.654 17.754-9.836 33.459-18.385 49.085-8.584 15.678-17.141 31.453-20.662 49.164-1.498 7.524-2.085 15.381-2.146 23.045-.053 6.867.272 14.566 4.012 20.557.21.289.701.009.508-.298h0z"/><path d="M166.936 742.467c2.479-5.422 7.576-8.908 12.446-12.009 4.861-3.092 10.073-6.009 13.883-10.423 2.023-2.347 3.539-5.133 4.169-8.181.07-.35-.455-.508-.543-.149-2.978 12.236-16.388 16.011-24.91 23.5-2.251 1.98-4.187 4.292-5.431 7.033-.105.263.272.491.385.228h0z"/><path d="M197.33 710.234c-1.393 9.687.228 18.893 3.705 27.976 4.055 10.598 9.407 20.356 7.156 32.084-.061.324.42.464.499.14 2.26-9.609-1.349-18.753-5.08-27.477-4.485-10.484-7.375-21.1-5.746-32.574.053-.359-.491-.508-.534-.149h0zm16.94-33.468c6.587 11.833 20.435 23.465 18.21 38.338-.044.272.377.394.42.114 2.409-15.144-11.448-26.724-18.236-38.688-.14-.254-.534-.026-.394.236h0zm81.747 9.556c.394 0 .394-.613 0-.613s-.394.613 0 .613h0zm-25.164-187.555c.394 0 .394-.613 0-.613s-.394.613 0 .613h0z"/></g><path fill="#61b146" d="M555.579 535.239c9.153-32.828 10.581-66.358 5.071-101.306-2.461-15.608-5.641-37.269-16.011-49.821-4.651-5.632-11.15-6.122-7.226-15.267.622-1.445 11.912-14.435 12.464-14.522-5.36.771-11.036 1.866-15.906 4.318-4.958 2.488-8.759 6.455-13.086 9.845-3.407 2.671-6.595 6.079-10.187 8.575-3.801 2.636-8.811 2.864-12.946 4.791-4.204 1.962-7.314 6.166-10.353 9.6-8.286 9.381-15.845 19.55-25.856 27.214-25.681 19.664-27.74 64.904-21.319 93.817 4.231 19.051-6.779 38.084-5.597 57.765.771 12.876 4.134 24.043 10.66 35.158 6.604 11.255 17.238 18.867 23.491 30.394 12.946 23.877 25.252 43.838 21.775 71.683 14.557-11.851 29.185-35.062 36.901-51.914 5.29-11.553 7.068-26.084 7.358-38.609.429-18.227 3.074-35.158 10.344-52.186a233.2 233.2 0 0 0 10.423-29.535z"/><g fill="#000"><path d="M555.868 535.318c8.435-30.639 10.239-62.539 6.149-94.027-1.629-12.543-3.512-25.348-7.252-37.462-1.726-5.579-3.915-11.098-7.077-16.029-1.296-2.023-2.733-3.977-4.476-5.641-1.647-1.577-3.749-2.803-5.185-4.581-4.178-5.177 1.034-10.607 4.309-14.47l4.581-5.264c.876-.981 1.927-2.628 3.118-3.258.333-.175.079-.613-.236-.561-7.217 1.069-14.277 2.654-20.277 6.998-5.606 4.055-10.59 8.943-15.897 13.357-3.425 2.855-6.797 4.309-11.036 5.492-2.917.815-5.588 1.726-8.014 3.591-5.527 4.248-9.889 10.633-14.382 15.915-5.212 6.131-10.528 12.236-16.747 17.378-4.187 3.46-8.146 6.797-11.439 11.176-6.797 9.039-10.721 20.014-12.893 31.024-2.26 11.474-2.742 23.29-1.874 34.939.394 5.238 1.069 10.467 2.067 15.626 1.568 8.093 1.892 15.503.517 23.675-2.479 14.75-6.937 28.51-4.852 43.637 1.918 13.909 7.629 27.1 16.668 37.847 5.562 6.613 11.877 12.639 16.265 20.163 4.143 7.112 8.032 14.479 11.693 21.854 7.953 16.055 12.753 32.741 10.66 50.776-.035.295.35.368.526.219 8.409-6.963 15.293-15.67 21.424-24.665 6.105-8.969 11.772-18.516 16.064-28.51 4.73-10.992 6.333-23.237 6.797-35.115.517-13.366 1.524-26.531 5.124-39.477 2.05-7.366 5.071-14.286 7.874-21.372 3.004-7.603 5.588-15.363 7.804-23.237.114-.377-.482-.543-.587-.158-2.225 7.874-4.809 15.626-7.813 23.237-2.882 7.305-5.991 14.426-8.058 22.029-3.723 13.69-4.301 27.407-5.08 41.474-.815 14.768-4.125 28.256-10.992 41.36-6.263 11.956-13.69 23.527-22.563 33.713-2.032 2.33-4.143 4.59-6.385 6.718-.324.307-2.996 3.031-3.232 2.899-.455-.254.21-4.712.236-5.247.298-6.578-.315-13.173-1.752-19.602-2.873-12.841-8.943-24.665-15.162-36.157-3.188-5.886-6.166-11.956-10.257-17.273-4.029-5.247-8.741-9.906-12.937-15.013-9.53-11.606-14.978-26.154-16.204-41.071-1.209-14.689 4.143-28.467 5.921-42.849 1.48-11.921-2.19-23.167-3.109-34.974-1.708-21.819.727-46.685 13.795-64.991 3.46-4.844 7.638-8.461 12.184-12.21 5.527-4.563 10.344-9.906 15.004-15.337 4.572-5.325 8.899-11.054 13.909-15.976 5.106-5.019 11.825-4.704 17.588-8.26 5.632-3.477 10.528-8.715 15.591-12.972 6.087-5.124 12.438-8.023 20.251-9.433.324-.061 3.679-.438 3.372-1.077.009.026-.736.683-.797.753-1.139 1.323-2.374 2.566-3.53 3.88-2.461 2.794-5.01 5.588-7.217 8.601-1.752 2.391-2.873 5.895-1.673 8.759 1.472 3.486 5.658 5.387 8.041 8.198 8.479 9.994 11.492 24.245 13.795 36.796 5.588 30.367 7.331 61.172 2.085 91.724-1.288 7.524-2.996 14.952-5.019 22.309-.088.368.499.526.596.149z"/><path d="M547.976 355.672c-9.118 2.847-17.036 8.96-24.218 15.074-8.014 6.832-14.855 14.251-20.014 23.491-5.974 10.712-10.467 22.423-14.619 33.932-3.968 11.01-8.917 22.659-9.556 34.466-.35 6.42.149 12.867-.009 19.296-.158 6.403-.026 12.814.359 19.208.753 12.692 2.435 25.313 4.502 37.856 4.266 25.926 10.257 51.564 14.286 77.525 2.269 14.592 3.381 29.413 1.62 44.128-1.752 14.601-6.254 28.615-9.749 42.849-.079.342.438.482.526.14 3.004-11.684 6.604-23.255 8.768-35.141 2.137-11.754 2.514-23.702 1.559-35.596-1.988-24.709-8.067-49.181-12.674-73.496-4.835-25.55-9.162-51.397-8.531-77.49.149-6.201-.298-12.403-.035-18.595.28-6.482 1.98-12.639 4.012-18.762 4.064-12.236 8.347-24.367 13.454-36.209 5.133-11.886 11.133-23.045 20.689-31.988 8.575-8.023 18.385-16.589 29.789-20.163.342-.088.193-.631-.158-.526h0z"/><path d="M488.582 658.539c-.815-6.14-3.688-12.394-1.918-18.595 1.717-6.044 4.012-11.912 5.606-18.017 3.031-11.614 4.073-23.246 1.55-35.071-.07-.333-.569-.193-.508.14 2.68 13.138 1.007 25.716-2.601 38.496l-2.689 8.995c-.815 2.47-2.041 4.896-2.417 7.498-.788 5.518 1.708 11.159 2.435 16.554.053.342.587.342.543 0h0zm.674-92.853c3.906 19.016 18.078 33.608 24.052 51.827.745 2.26 1.375 4.572 1.936 6.885.867 3.591.604 6.674.245 10.274-.324 3.276 1.13 6.026 2.671 8.803 2.549 4.581 3.232 9.127 3.118 14.33-.053 2.54-1.042 4.537-1.48 6.963-.201 1.095-.096 2.216-.245 3.32-.228 1.647-.85 3.144-1.112 4.791-.044.289.394.42.447.123 1.419-8.216 4.949-17.045 1.944-25.453-1.752-4.896-5.36-8.339-4.555-13.935.727-4.984-.324-9.092-1.726-13.944-5.544-19.252-20.724-34.309-24.823-54.095-.07-.324-.543-.193-.473.114h0zM479.7 491.33c1.612 8.268 3.512 16.607 6.779 24.411 2.671 6.394 7.165 11.614 11.798 16.668l16.467 17.903c3.013 3.434 5.65 6.928 7.419 11.159 1.568 3.766 2.54 7.743 3.959 11.562.114.315.622.193.517-.14-2.137-6.744-3.924-13.568-8.33-19.261-4.931-6.368-10.87-12-16.265-17.965-5.203-5.746-10.975-11.299-14.321-18.42-3.836-8.163-5.816-17.246-7.541-26.049-.07-.307-.543-.174-.482.131h0zm.911 17.203c-1.077 11.264-5.527 20.986-11.86 30.227-5.483 7.997-11.781 15.6-16.003 24.385-3.679 7.664-6.377 15.976-7.682 24.376-1.121 7.182-1.445 15.372 2.838 21.635.175.254.587.018.412-.245-4.993-7.358-3.635-17.658-1.822-25.83 1.804-8.137 4.642-16.335 8.82-23.57 4.949-8.575 11.369-16.169 16.616-24.543 5.098-8.146 8.295-16.843 9.188-26.434.035-.324-.473-.324-.508 0h0zm49.006 77.762c3.714 7.436 4.274 15.819 5.667 23.868.044.254.464.193.447-.061-.342-4.117-1.042-8.26-1.874-12.298-.841-4.038-1.927-8.076-3.775-11.772-.166-.307-.622-.044-.464.263h0zm-35.912-169.599c.543 28.142 13.322 55.138 33.415 74.635.254.254.648-.14.394-.394-19.9-19.506-32.706-46.195-33.275-74.241-.018-.342-.543-.342-.534 0h0zm-52.948 111.773c2.812-20.54.473-42.122 7.734-61.899 3.968-10.8 10.747-19.217 20.873-24.744 8.076-4.406 16.441-7.944 21.319-16.23.166-.289-.263-.526-.438-.254-6.236 9.328-15.74 12.341-24.788 18.061-8.33 5.273-13.909 13.349-17.351 22.484-7.515 19.927-5.124 41.771-7.83 62.521-.035.272.438.333.482.061h0zm105.879-119.393c5.028 9.915 7.909 20.934 8.4 32.049.403 9.188-1.042 19.024 1.761 27.941a.24.24 0 0 0 .455-.123c-2.645-9.985-.981-20.329-1.866-30.49-.902-10.336-3.617-20.382-8.33-29.623-.149-.272-.561-.035-.42.245h0zm9.644 68.066l.289 1.726c.026.14.201.228.333.193.149-.053.21-.184.193-.333l-.272-1.734c-.026-.14-.21-.236-.342-.193-.158.053-.219.193-.201.342h0zm-76.51 93.474c-1.174 3.101-2.041 6.158-3.854 8.978l-5.247 8.058c-1.244 2.277-1.761 4.66-2.093 7.217-.385 2.934-1.042 5.86-.736 8.829.035.315.534.324.508 0-.254-3.022.455-6.026.946-8.987.508-3.004 1.288-5.579 2.838-8.225l4.835-7.62c1.498-2.549 2.207-5.378 3.241-8.12.096-.28-.342-.394-.438-.131h0zm-12.692 39.713c.149 1.034-.245 2.032-.578 2.996-.044.131.053.28.175.315.149.044.263-.053.315-.175.403-1.051.753-2.128.596-3.267-.018-.14-.201-.219-.333-.184-.149.026-.201.175-.175.315h0zm68.959-105.431c6.517 9.065 11.054 21.109 9.574 32.399-.035.245.403.307.447.061 1.831-11.509-2.961-23.483-9.609-32.697-.184-.236-.596-.009-.412.236h0zm-15.109-131.673c-5.01 6.648-5.65 16.116-2.724 23.781 3.293 8.61 10.922 14.671 12.569 24.043.061.342.578.193.526-.14-1.358-8.461-7.612-14.251-11.369-21.608-4.082-7.971-3.985-18.481 1.454-25.804.193-.28-.254-.543-.455-.272h0zm10.844 50.819c.272 0 .272-.429 0-.429-.28 0-.28.429 0 .429h0zm-63.003-11.448c1.796-2.251 4.791-3.311 7.358-4.397l11.211-4.563c3.285-1.323 6.517-2.724 9.556-4.546 1.48-.885 2.882-1.892 4.371-2.768 1.261-.736 2.523-1.393 3.574-2.417.263-.254-.131-.648-.394-.394-1.226 1.165-2.742 1.839-4.16 2.724-1.594.99-3.144 2.023-4.782 2.934-3.574 1.988-7.428 3.434-11.22 4.949-3.127 1.244-6.219 2.549-9.311 3.889-2.4 1.042-4.949 2.163-6.578 4.292-.184.219.201.517.377.298h0z"/></g><path fill="#61b146" d="M390.824 498.084c22.055 21.31 33.407 61.496 34.939 91.54 1.699 33.31-8.286 66.156-21.004 96.559-8.847 21.144-12.665 57.581 3.144 76.667-25.69-10.511-40.957-26.925-54.446-51.038-12.114-21.67-9.898-45.161-31.576-62.32-21.398-16.94-36.297-31.734-43.436-59.832-6.447-25.34 6.657-45.065 8.268-69.485.893-13.48-4.283-25.699-3.127-39.126 1.629-18.849 17.36-48.209 39.573-42.796 28.843 7.033 47.727 40.571 67.663 59.832z"/><g fill="#000"><path d="M390.64 498.259c17.807 17.483 26.995 42.884 31.742 66.892 5.728 28.966 3.022 57.949-5.317 86.153-4.125 13.944-10.274 27.065-14.829 40.825-3.469 10.467-5.299 21.582-5.431 32.601-.123 10.537 1.331 21.512 6.14 31.007.587 1.156 1.217 2.277 1.909 3.372.307.491 2.277 2.636 2.207 3.136.044-.289-6.692-3.136-7.524-3.556-5.518-2.812-10.782-6.114-15.67-9.915-9.626-7.506-17.527-16.896-24.14-27.109-7.042-10.887-11.728-22.178-15.53-34.519-3.293-10.695-6.885-21.416-14.154-30.148-4.134-4.966-9.311-8.724-14.251-12.823-4.598-3.819-9.074-7.787-13.244-12.07-8.47-8.698-15.346-18.727-19.813-30.034-5.439-13.76-6.998-27.486-4.09-42.025 2.575-12.893 7.191-25.375 8.26-38.557 1.182-14.662-4.966-28.94-2.645-43.584 3.118-19.594 18.56-45.809 41.815-38.539 23.167 7.235 38.373 29.413 53.465 46.957 3.547 4.125 7.191 8.172 11.089 11.973.254.245.648-.14.394-.394-11.536-11.246-20.925-24.446-32.005-36.113-10.029-10.572-22.677-21.74-37.611-24.148-12.376-1.997-22.51 6.946-28.703 16.712-8.058 12.718-10.756 26.855-8.628 41.684 1.55 10.809 3.206 20.873 1.507 31.786-1.472 9.451-4.406 18.586-6.569 27.888-1.98 8.522-3.223 17.246-2.277 26.005.876 8.137 3.495 16.222 6.771 23.693 6.315 14.417 16.642 26.102 28.449 36.306 6.841 5.904 14.373 10.984 19.743 18.385 5.028 6.937 8.067 14.969 10.642 23.071 2.698 8.505 5.071 17.132 8.987 25.182 3.985 8.172 9.083 16.02 14.654 23.194 11.054 14.216 25.252 24.726 41.859 31.611.307.123.447-.298.289-.49-10.905-13.524-11.965-32.715-9.968-49.287 2.234-18.543 10.607-34.834 16.467-52.352 6.779-20.251 11.465-41.395 11.623-62.828.131-17.614-2.882-35.36-8.155-52.151-5.518-17.579-13.778-35.088-27.083-48.13-.254-.254-.613.114-.377.342z"/><path d="M404.068 688.626c2.917-10.809-3.512-20.443-10.327-28.283-8.811-10.134-17.737-19.699-23.395-32.066-.14-.307-.666-.088-.543.228 2.216 6.087-1.358 14.505-3.959 20.005-3.197 6.771-7.515 12.946-11.15 19.48-2.829 5.08-5.553 10.607-6.193 16.458-.718 6.56 4.125 11.229 4.704 17.518.035.342.578.35.543 0-.534-5.833-5.045-10.414-4.791-16.379.298-6.981 4.108-13.673 7.533-19.559 5.877-10.082 13.568-20.496 14.487-32.548.079-1.016.272-2.435-.096-3.416-.788-2.076-.158.175 0 .736.841 2.917 3.232 5.991 4.879 8.505 3.416 5.212 7.358 10.055 11.509 14.697 8.444 9.433 20.067 20.505 16.335 34.484-.088.315.385.447.464.14h0zm-103.995-71.937c1.2-7.585 1.349-15.258 2.076-22.887.858-9.074 3.083-17.334 7.244-25.471 3.442-6.744 7.454-13.392 12.219-19.296 3.232-4.012 7.393-8.391 7.953-13.743.026-.263-.377-.254-.412 0-.771 6.552-6.666 11.43-10.362 16.484-4.511 6.166-8.505 13.051-11.658 20.005-6.49 14.303-5.168 29.596-7.559 44.758-.053.332.447.473.499.149h0z"/><path d="M403.236 759.591c-2.198-3.688-5.054-6.753-7.918-9.924-3.985-4.406-6.42-8.759-8.715-14.242-4.502-10.773-9.293-21.416-12.07-32.802-2.628-10.791-3.635-21.889-3.547-32.977.088-10.992 1.813-21.941 1.533-32.934-.254-9.863-2.987-17.448-9.048-25.252-5.772-7.436-11.352-14.952-16.651-22.738-5.527-8.12-10.625-16.607-13.734-25.988-3.285-9.915-3.95-20.251-3.679-30.621.569-21.573 5.08-44.592-2.733-65.403-.131-.359-.718-.21-.587.158 7.226 19.594 3.652 41.114 2.803 61.435-.403 9.617-.333 19.322 1.909 28.729 2.128 8.925 6.087 17.203 10.879 24.989 4.905 7.979 10.301 15.854 15.994 23.29 2.899 3.784 6.079 7.375 8.68 11.387 3.206 4.958 4.712 10.125 5.229 15.976.972 10.905-.841 21.854-1.147 32.758-.298 10.66.298 21.363 2.339 31.839 2.426 12.464 7.244 24.026 12.175 35.666 2.041 4.826 3.714 9.547 7.007 13.69 3.565 4.485 7.839 8.268 10.8 13.226.193.315.657.035.482-.263h0z"/><path d="M417.057 607.615c-4.537-3.67-8.268-7.594-11.816-12.219-2.593-3.39-5.141-6.858-8.225-9.836-7.384-7.13-18.026-10.379-27.521-13.629-9.179-3.136-16.966-7.752-24.157-14.33-6.806-6.219-13.34-13.883-15.836-22.94-.105-.385-.701-.219-.596.166 2.234 8.093 7.673 15.022 13.533 20.864 5.912 5.886 12.876 11.299 20.601 14.575 10.957 4.642 23.614 6.683 32.723 14.899 3.749 3.381 6.674 7.524 9.757 11.492 3.346 4.309 6.946 7.892 11.203 11.29.236.193.569-.14.333-.333h0zm-132.768-69.923c.937-4.747 4.222-8.26 7.629-11.474 3.705-3.512 7.655-6.631 11.895-9.477 3.39-2.277 6.928-4.301 9.985-7.033 2.531-2.26 5.325-4.931 6.587-8.155.105-.272-.359-.473-.473-.201-1.542 3.556-4.765 6.49-7.717 8.899-3.609 2.952-7.769 5.194-11.562 7.901-3.775 2.698-7.261 5.72-10.519 9.022-2.908 2.952-5.483 6.236-6.28 10.397-.07.307.394.429.455.123h0z"/></g><path fill="#61b146" d="M341.397 385.146c4.441 2.934 8.803 5.956 13.401 8.417 13.252 7.086 33.643 8.452 48.218 6.893 10.248-1.095 24.945-2.26 22.256 12.797 11.176-62.626-58.694-114.4-110.818-131.331-19.016-6.175-38.855-9.407-58.86-8.286-19.532 1.095-36.639 11.194-55.567 12.122-9.013.447-22.432-.14-29.973-4.958 8.216 12.762 10.686 30.525 21.696 41.403 10.476 10.353 23.956 22.738 36.244 31.313 17.22 12.017 41.421 21.573 62.609 22.44 9.696.394 18.683-3.477 28.291-1.498 8.505 1.752 15.6 6.114 22.502 10.686z"/><g fill="#000"><path d="M341.256 385.4c7.638 5.08 15.065 10.055 23.973 12.587 8.409 2.382 17.255 3.311 25.97 3.355 7.033.035 13.997-1.261 21.013-1.156 3.083.044 6.42.359 9.127 1.98 3.95 2.365 4.283 6.858 3.644 11.001-.061.385.534.561.596.166 6.849-39.897-18.919-74.898-48.831-98.249a210.41 210.41 0 0 0-50.425-29.141c-23.15-9.363-49.742-15.188-74.784-12.245-14.154 1.664-27.284 7.629-41.185 10.423-12.341 2.488-28.983 3.162-40.16-3.574-.245-.149-.552.149-.394.394 6.858 10.931 9.433 23.956 16.432 34.817 3.53 5.483 8.47 9.81 13.182 14.251 5.474 5.159 11.08 10.187 16.896 14.952 20.715 16.984 47 30.455 74.302 31.287 8.584.263 16.984-2.794 25.567-1.918 9.241.963 17.483 6.079 25.077 11.071.315.219.613-.298.298-.508-9.284-6.122-19.261-11.842-30.761-11.229-6.079.324-12.017 1.927-18.113 2.015-6.017.096-12.114-.858-17.973-2.12-24.262-5.229-45.17-17.781-63.739-33.871-4.616-4.003-9.118-8.137-13.533-12.368-4.169-3.985-8.26-7.857-11.299-12.814-5.457-8.917-8.146-19.165-12.797-28.475-.587-1.174-1.27-2.304-1.866-3.477-.666-1.305-1.042-.885.14-.534 2.041.604 3.942 1.673 6.035 2.225 4.677 1.244 9.565 1.717 14.391 1.874 11.001.35 21.337-1.778 31.83-4.931 12.201-3.661 23.999-7.209 36.858-7.463 13.822-.272 27.634 1.507 41.036 4.844 18.928 4.712 36.963 12.552 53.666 22.589 31.462 18.911 63.371 48.288 69.704 86.205.815 4.852 1.156 9.792 1.007 14.715-.061 2.023-.193 4.047-.42 6.061-.079.683-.858 3.88-.254 4.055.709.201.464-2.032.455-2.453-.096-6.114-4.415-9.197-10.108-9.941-8.093-1.06-16.467.955-24.595.92-11.404-.053-23.325-1.489-33.801-6.219-5.623-2.54-10.73-6.21-15.854-9.609-.333-.201-.622.298-.307.508z"/><path d="M173.768 284.068c16.318 9.915 32.907 21.556 52.72 21.976 22.633.482 45.336-2.417 67.645 2.873 19.191 4.555 33.494 18.28 50.469 27.398 9.039 4.852 19.147 5.816 28.484 9.784 9.705 4.134 17.632 11.684 25.348 18.7 7.506 6.823 13.06 15.048 19.419 22.843 5.798 7.095 7.55 14.391 7.331 23.57-.009.464.709.464.727 0 .263-7.139-.543-14.295-4.66-20.321-3.968-5.816-8.61-11.465-13.13-16.87-6.622-7.927-14.619-15.065-22.826-21.337-7.971-6.096-16.335-8.864-25.9-11.413-19.997-5.325-34.44-20.654-53.027-28.931-19.804-8.82-42.665-7.629-63.826-7.112-12.806.315-24.937.543-37.059-4.248-11.176-4.406-21.223-11.185-31.445-17.369-.298-.175-.561.28-.272.455h0z"/><path d="M412.44 379.523c-10.265-13.331-26.478-17.781-42.735-16.02-9.705 1.051-19.059 3.942-28.615 5.825-5.632 1.104-11.001 1.62-16.73 1.051-5.045-.499-9.95-1.095-14.96-.079-.236.044-.131.394.096.359 5.255-.858 10.336-.096 15.573.385 4.344.403 8.47.21 12.762-.499 9.127-1.515 17.991-4.274 27.126-5.772 17.535-2.873 35.623.42 47.009 15.109.21.272.683-.088.473-.359h0z"/><path d="M358.678 303.058c2.426 13.716 14.233 23.413 23.886 32.399 5.168 4.809 10.563 9.731 14.268 15.801 5.115 8.382 8.943 17.325 13.357 26.067.131.263.526.035.403-.236-4.187-8.654-8.067-17.273-12.937-25.585-3.232-5.509-7.909-10.064-12.517-14.417-10.16-9.6-23.334-19.576-25.935-34.177-.061-.342-.587-.193-.526.149h0zm-10.598 34.344c-5.746-4.012-13.13-4.887-19.962-5.089-7.655-.219-15.337.569-22.896 1.726-20.995 3.215-41.237 11.404-62.758 7.655-.367-.061-.526.491-.158.561 20.259 3.766 39.328-3.539 59.035-6.99 7.612-1.331 15.319-2.304 23.054-2.417 7.866-.114 16.756.359 23.421 5.001.272.21.543-.254.263-.447h0zm-57.362-61.418c18.595 2.453 32.268 20.548 41.193 35.535 3.959 6.639 7.839 13.103 13.025 18.884 4.896 5.466 11.071 11.343 18.613 12.543.307.053.447-.42.131-.482-8.724-1.647-15.67-9.048-21.021-15.661-5.396-6.666-9.162-14.26-13.909-21.354-8.803-13.138-21.363-27.862-38.04-29.947-.289-.026-.28.438.009.482h0zm-43.374 28.913c-2.085.368-3.749 1.507-5.553 2.566-2.216 1.296-4.581 2.207-7.06 2.873-4.677 1.261-9.451 1.796-13.988 3.582-10.09 3.985-20.645 7.69-31.567 4.765-.315-.088-.447.394-.131.491 9.994 3.013 20.759-.105 30.052-4.003 4.835-2.023 9.749-2.838 14.794-4.117 2.286-.578 4.563-1.296 6.657-2.391 2.295-1.2 4.283-2.917 6.893-3.381.272-.035.158-.429-.096-.385h0zm-21.871-23.64c5.921-.832 11.903.552 17.57 2.207 5.509 1.612 11.054 3.381 16.344 5.623 5.544 2.339 10.467 5.571 15.354 9.048 2.601 1.857 5.063 3.836 7.463 5.939 1.515 1.323 3.039 2.601 4.949 3.311.333.123.464-.394.149-.526-2.987-1.217-5.203-3.74-7.673-5.737-2.234-1.804-4.572-3.469-6.928-5.115-4.923-3.434-9.941-6.306-15.556-8.461-9.696-3.714-21.249-8.277-31.795-6.727-.289.044-.166.473.123.438h0zm183.201-16.424c-5.833 10.257-9.004 23.675-3.311 34.677.175.342.692.044.517-.307-5.378-10.782-2.453-24.061 3.215-34.125.158-.272-.263-.517-.42-.245h0zM114.12 344.522l.184-.473c.026-.061.009-.149-.026-.21a.31.31 0 0 0-.158-.123.29.29 0 0 0-.21.026c-.018.018-.035.026-.053.044-.035.035-.053.07-.07.123-.061.158-.131.315-.193.473-.026.061 0 .158.026.21.035.053.096.114.166.123a.29.29 0 0 0 .21-.026.34.34 0 0 0 .123-.166h0z"/></g><path fill="#c2d95f" d="M138.855 486.259l4.493-.14c4.344-.035 8.181 1.331 12.543.342 4.336-.99 8.111-3.574 12.324-4.949 3.477-1.13 7.182-2.242 10.887-1.918 2.242.193 27.214 2.015 26.189 4.931-.613 1.726-5.22-.061-6.525.105-2.47.315-4.677 1.813-6.324 3.617-4.809 5.273-9.004 10.949-11.378 17.763-2.277 6.56-5.115 12.937-8.68 18.902-3.46 5.79-8.391 10.362-11.938 15.941-8.295 13.033-15.652 26.233-22.826 39.564-8.076 15.022-13.498 31.234-17.106 47.868-1.734 7.997-4.388 17.176-4.327 25.392.061 8.207 1.594 16.309 1.147 24.665-.307 5.728-1.165 15.897-4.8 20.47-.377-3.232-2.628-6.061-3.845-9.214-1.734-4.467-3.153-9.127-5.282-13.524-5.501-11.36-15.661-19.182-24.035-28.493-8.058-8.96-14.855-20.128-16.914-32.285-1.971-11.649 6.639-21.6 8.277-32.469 2.864-18.972-7.086-38.846 9.67-53.079 10.957-9.302 18.762-21.573 30.034-30.639 4.134-3.328 8.601-6.306 13.244-8.882 4.809-2.654 9.88-3.635 15.17-3.968z"/><g fill="#000"><path d="M138.855 486.513c5.185-.263 10.476 1.051 15.6.455 4.923-.578 9.232-3.591 13.83-5.194 6.438-2.234 12.061-1.874 18.586-1.209 5.29.534 11.352.709 16.362 2.663 2.82 1.095.272 1.857-1.708 1.524-.911-.149-1.831-.447-2.759-.394-3.871.201-6.744 3.828-9.004 6.525-2.671 3.197-5.106 6.622-6.972 10.353-2.4 4.809-3.845 10.055-6.105 14.934-2.304 4.958-4.958 9.696-8.33 14.006-3.057 3.906-6.271 7.585-8.943 11.79-11.325 17.824-22.677 36.656-30.332 56.39-3.924 10.117-6.736 20.548-9.118 31.12-2.198 9.801-4.493 19.138-3.863 29.255.622 9.976 1.655 19.716-.096 29.649-.377 2.12-.841 4.248-1.594 6.263.158-.412-.815 2.339-1.156 2.566-1.025.674-.315.972-1.025-.841-.78-1.997-1.901-3.81-2.785-5.755-1.358-2.996-2.295-6.184-3.469-9.249-6.937-18.087-23.737-28.177-34.081-43.944-5.588-8.514-10.94-19.786-8.96-30.218 1.673-8.82 7.112-16.432 8.26-25.41 1.139-8.908-.42-17.824-.508-26.741-.044-4.844.359-9.766 2.12-14.321 2.216-5.702 6.403-9.293 10.747-13.366 16.686-15.626 30.113-38.969 55.313-40.799.394-.026.394-.648 0-.613-18.157 1.314-31.874 14.715-43.339 27.687-3.153 3.565-6.28 7.174-9.626 10.563-3.232 3.267-7.068 6.035-9.898 9.679-4.038 5.194-5.632 11.492-5.895 17.973-.324 8.102 1.051 16.16.876 24.262-.193 8.917-3.626 16.055-6.666 24.236-3.039 8.172-2.812 15.442.123 23.649 2.742 7.664 7.095 14.689 12.271 20.951 6.368 7.725 14.225 14.084 20.461 21.932 4.055 5.098 6.762 10.59 9.004 16.695.823 2.251 1.568 4.555 2.523 6.762 1.253 2.864 2.987 5.439 3.574 8.557.053.272.394.254.526.07 5.036-6.963 5.15-18.245 4.87-26.478-.21-6.28-1.174-12.517-1.174-18.805 0-6.595 1.498-13.068 2.978-19.454 2.812-12.105 5.667-24.087 10.169-35.71 4.852-12.534 11.518-24.262 18.14-35.938 3.162-5.562 6.403-11.089 9.757-16.537 3.504-5.685 7.541-10.721 11.623-15.994 3.521-4.546 6.245-9.626 8.584-14.864 2.435-5.431 3.985-11.255 7.025-16.397 2.829-4.774 7.909-13.182 13.962-13.725 1.139-.105 6.219 1.577 6.814-.403.718-2.409-7.033-3.136-8.225-3.328-5.965-.981-12.079-1.69-18.122-2.006-5.842-.307-11.413 1.866-16.616 4.292-4.029 1.874-7.778 3.188-12.271 2.847-3.863-.298-7.55-.648-11.439-.455-.333.018-.333.508-.018.499z"/><path d="M62.828 608.114c2.216-3.469 4.704-6.744 7.103-10.082 2.312-3.232 4.178-6.762 6.49-9.976 5.422-7.506 13.165-11.947 21.678-15.109 6.613-2.453 13.13-5.063 19.673-7.673 4.774-1.909 10.397-3.985 13.454-8.365.193-.28-.254-.526-.447-.263-4.16 5.562-11.956 7.524-18.096 10.02-6.701 2.724-13.664 4.984-20.259 7.944-6.517 2.925-12.298 7.34-16.502 13.156-2.207 3.048-3.959 6.412-6.14 9.486-2.496 3.521-5.106 6.946-7.393 10.607-.193.272.254.534.438.254h0zm9.258-65.429c3.854-8.128 14.689-11.264 22.519-14.032 10.922-3.871 22.265-6.744 33.862-7.515 9.854-.657 20.005 1.34 29.325-2.803 4.152-1.848 7.839-4.598 11.422-7.358 3.372-2.601 8.347-8.479 13.068-8.093.359.026.359-.534 0-.561-3.451-.298-6.552 2.628-9.065 4.642-4.204 3.355-8.356 6.937-13.103 9.512-11.448 6.219-24.875 3.048-37.304 4.59-11.264 1.401-22.213 4.607-32.802 8.654-6.771 2.584-15.127 5.667-18.359 12.718-.149.28.298.543.438.245h0zM84.62 652.302c2.128-3.889 4.344-7.778 7.725-10.73 3.95-3.451 8.987-5.352 13.646-7.638 3.39-1.664 6.867-3.302 10.011-5.387 2.654-1.761 5.317-4.003 6.14-7.2.088-.342-.438-.482-.526-.149-.999 3.863-4.774 6.306-8.032 8.172-3.521 2.015-7.217 3.784-10.887 5.509-4.169 1.962-8.409 3.95-11.737 7.226-2.89 2.847-4.87 6.403-6.797 9.933-.158.289.289.561.455.263h0zm-15.862-21.67c8.163-12.937 22.248-19.673 36.069-24.849.307-.114.184-.596-.14-.499-13.971 4.196-28.502 12.473-36.402 25.077-.184.298.289.569.473.272h0zm43.532-27.932c.201-.131.394-.272.587-.412.061-.044.114-.096.131-.175a.34.34 0 0 0-.026-.228c-.044-.061-.105-.114-.175-.131a.34.34 0 0 0-.228.026l-.613.377c-.07.044-.123.105-.149.184-.018.079-.009.175.035.245s.105.123.184.149c.088.018.184.009.254-.035h0zm12.411-50.802c5.676-7.261 15.924-8.584 23.658-12.753 8.277-4.467 14.662-11.641 24.105-13.953.368-.088.21-.648-.158-.569-9.521 1.944-16.038 9.521-24.262 13.979-7.734 4.196-18.043 5.597-23.71 12.919-.21.263.158.648.368.377h0zm-18.464-37.839c8.102-6.166 19.296-4.397 28.799-5.693 6.99-.955 17.22-2.19 21.678-8.452.219-.307-.289-.709-.534-.412-2.803 3.495-7.27 5.098-11.465 6.228-4.108 1.112-8.391 1.857-12.63 2.242-8.724.797-18.727.079-26.067 5.711-.219.166 0 .543.219.377h0z"/><path d="M151.319 536.492c-7.419 3.46-15.17 3.363-23.124 2.496-3.39-.368-6.578-.499-9.88.438-3.197.911-6.193 2.444-9.232 3.775-.359.158-.096.788.272.639 3.232-1.358 6.394-2.996 9.801-3.871 3.977-1.016 7.848-.377 11.86-.026 7.068.622 14.041-.026 20.522-3.074.263-.114.035-.499-.219-.377h0zM97.39 593.425c7.997-5.168 16.519-8.847 25.445-12.096 4.108-1.498 8.251-3.004 12.14-5.019 3.705-1.918 6.42-4.817 9.223-7.839.21-.228-.114-.561-.342-.342-3.144 2.996-5.974 6-9.924 7.971-4.362 2.181-8.987 3.784-13.55 5.483-8.146 3.048-15.915 6.709-23.211 11.457-.245.149-.026.534.219.385h0z"/></g></g></svg>